<?xml version="1.0" standalone="no"?>
<!DOCTYPE svg PUBLIC "-//W3C//DTD SVG 20010904//EN"
 "http://www.w3.org/TR/2001/REC-SVG-20010904/DTD/svg10.dtd">
<svg version="1.0" xmlns="http://www.w3.org/2000/svg"
 width="700.000000pt" height="700.000000pt" viewBox="0 0 700.000000 700.000000"
 preserveAspectRatio="xMidYMid meet">
<metadata>
Created by potrace 1.11, written by Peter Selinger 2001-2013
</metadata>
<g transform="translate(0.000000,700.000000) scale(0.100000,-0.100000)"
fill="#000000" stroke="none">
<path d="M0 3500 l0 -3499 1550 0 1550 0 1 47 c0 26 2 83 4 127 2 44 6 163 10
265 3 102 8 230 10 285 2 55 6 179 10 275 12 332 13 376 20 575 4 110 9 232
10 270 3 103 16 434 20 550 22 559 24 779 8 781 -7 1 -21 2 -31 3 -11 1 -18 9
-19 24 0 12 -4 119 -7 239 -4 119 -9 222 -10 230 -14 81 -78 151 -149 164
-117 21 -251 -18 -402 -119 -82 -55 -289 -265 -414 -422 -57 -71 -111 -140
-121 -151 -10 -12 -50 -66 -89 -121 -38 -54 -85 -112 -102 -128 l-32 -30 7 35
c14 66 16 74 37 139 67 202 224 527 332 691 180 272 473 559 727 712 121 73
265 133 365 152 62 13 72 14 135 21 36 4 67 8 70 10 22 13 344 21 426 11 133
-17 143 -21 313 -122 108 -65 173 -86 266 -87 95 0 155 22 220 82 23 21 51 43
62 49 11 6 103 11 224 12 195 1 206 0 227 -20 l23 -21 -3 -364 c-3 -334 -4
-366 -21 -382 -16 -16 -40 -18 -248 -18 -257 0 -257 0 -254 69 2 44 -7 46
-185 42 -121 -2 -145 -6 -229 -35 -95 -32 -192 -84 -224 -119 -10 -11 -22 -34
-27 -53 -10 -32 -42 -214 -55 -304 -3 -22 -8 -51 -10 -65 -3 -14 -8 -43 -11
-65 -7 -49 -12 -58 -29 -51 -25 9 -32 -19 -30 -134 4 -191 16 -989 20 -1235 2
-126 7 -401 10 -610 7 -398 12 -715 16 -1022 l2 -183 1514 0 1513 0 0 3500 0
3500 -3500 0 -3500 0 0 -3500z m4571 2412 c73 -165 100 -202 143 -202 30 1 63
29 80 71 11 27 15 70 13 168 l-2 131 221 -221 c121 -121 221 -226 221 -232 1
-15 15 -156 29 -276 10 -95 31 -124 86 -124 25 0 40 9 68 41 30 33 44 65 71
157 19 63 36 115 39 115 3 0 67 -123 143 -273 l138 -272 -21 -100 c-12 -55
-24 -109 -26 -120 -3 -11 -10 -50 -16 -87 -10 -57 -9 -70 5 -91 9 -14 30 -28
46 -32 57 -12 117 37 202 167 28 43 55 78 60 78 5 0 8 -3 7 -7 -2 -7 7 -73 17
-122 2 -10 6 -42 10 -72 4 -30 8 -56 10 -59 2 -3 6 -27 9 -55 4 -27 9 -63 12
-80 9 -53 13 -79 19 -115 3 -19 8 -48 11 -63 5 -23 -12 -58 -85 -186 -97 -169
-108 -204 -71 -241 24 -24 76 -26 123 -6 32 13 195 131 209 151 11 14 9 -42
-2 -90 -5 -22 -11 -60 -14 -85 -3 -25 -10 -67 -15 -95 -5 -27 -12 -70 -16 -95
-3 -25 -8 -52 -10 -60 -2 -8 -7 -37 -10 -65 -3 -27 -8 -59 -10 -70 -2 -11 -4
-26 -4 -32 -1 -7 -9 -21 -19 -30 -28 -27 -176 -161 -216 -195 -47 -40 -63 -88
-41 -122 36 -54 107 -54 258 0 54 20 101 34 103 31 3 -2 -50 -112 -118 -243
-67 -132 -129 -253 -137 -270 -12 -27 -36 -41 -178 -104 -165 -74 -203 -101
-203 -144 1 -30 29 -63 71 -80 27 -11 69 -15 163 -13 69 1 126 0 126 -3 0 -3
-98 -103 -217 -222 l-218 -215 -70 -7 c-38 -4 -95 -9 -125 -12 -104 -10 -172
-23 -187 -36 -50 -41 -29 -111 45 -151 26 -14 91 -38 145 -53 53 -14 97 -29
97 -33 0 -3 -123 -68 -273 -144 l-272 -138 -165 35 c-91 20 -177 36 -191 36
-59 0 -93 -64 -64 -120 22 -43 63 -80 156 -140 43 -29 79 -56 79 -60 0 -4 -28
-11 -62 -15 -35 -5 -65 -9 -68 -10 -3 0 -27 -4 -55 -9 -27 -4 -62 -9 -77 -12
-15 -2 -98 -15 -184 -29 l-158 -24 -65 37 -66 38 -1 66 -1 67 56 -31 c31 -17
65 -37 76 -44 12 -8 32 -12 45 -9 62 11 169 27 210 32 58 7 65 14 42 44 -39
50 -55 94 -54 147 1 69 38 134 91 161 73 38 104 35 418 -34 21 -5 283 119 283
134 0 3 -20 21 -45 39 -129 98 -108 282 40 340 31 12 60 17 160 27 61 6 133
14 172 20 24 4 223 194 223 213 0 7 -3 11 -7 10 -21 -6 -92 28 -125 60 -69 66
-83 172 -31 241 42 56 58 65 208 132 77 34 145 67 151 73 7 6 41 68 77 139
l66 127 -58 0 c-149 0 -245 120 -201 251 19 55 30 68 202 224 65 60 77 76 82
110 3 22 8 51 11 65 8 44 15 84 21 130 3 25 8 48 11 53 6 10 -7 9 -52 -8 -147
-53 -292 56 -270 203 5 39 38 109 90 194 30 49 79 142 81 154 1 7 -2 30 -6 51
-5 21 -11 56 -13 78 -3 22 -9 64 -13 93 -3 29 -10 55 -14 57 -4 3 -18 -4 -31
-14 -49 -38 -94 -54 -146 -53 -90 1 -153 49 -178 135 -17 59 -17 66 20 238 14
63 27 125 30 138 3 14 -20 69 -63 152 -36 71 -69 129 -72 129 -3 -1 -20 -21
-39 -46 -80 -110 -243 -113 -314 -5 -15 22 -31 59 -36 83 -8 35 -33 262 -34
303 0 6 -49 59 -108 118 l-107 108 -17 -52 c-47 -140 -196 -198 -301 -117 -48
38 -60 58 -125 203 -33 77 -66 145 -73 151 -6 6 -68 41 -138 77 l-128 66 0
-55 c0 -125 -87 -220 -198 -216 -78 3 -138 52 -310 253 -32 37 -49 42 -207 65
-22 3 -60 9 -83 14 -42 7 -43 7 -37 -14 23 -73 27 -100 21 -139 -14 -92 -82
-157 -168 -161 -70 -4 -101 8 -255 98 l-130 75 -129 -20 c-172 -26 -169 -25
-150 -52 65 -89 75 -165 35 -244 -19 -36 -36 -53 -74 -72 -64 -33 -119 -32
-295 8 l-135 31 -132 -66 c-73 -36 -133 -69 -133 -72 1 -4 20 -21 44 -39 77
-56 106 -156 71 -240 -19 -44 -40 -66 -92 -92 -39 -21 -47 -22 -223 -41 -58
-6 -115 -13 -128 -15 -13 -2 -70 -50 -127 -108 l-104 -105 57 -21 c152 -55
194 -215 85 -325 -27 -27 -85 -58 -233 -122 -36 -15 -74 -34 -85 -41 -11 -7
-49 -71 -86 -142 l-65 -129 45 0 c64 -2 101 -11 136 -35 54 -38 88 -99 87
-158 -1 -75 -31 -118 -166 -239 -69 -62 -126 -121 -127 -129 0 -9 -2 -23 -4
-31 -17 -77 -39 -240 -33 -245 3 -3 24 2 48 10 168 59 316 -91 252 -255 -5
-14 -42 -81 -82 -150 -40 -69 -73 -136 -73 -150 0 -25 11 -111 18 -140 2 -8 7
-40 10 -70 4 -30 9 -58 11 -62 2 -3 30 9 61 28 31 19 65 35 75 35 10 1 24 2
31 3 28 4 95 -17 129 -41 60 -41 85 -130 64 -228 -2 -11 -16 -75 -30 -142
l-26 -123 66 -130 c59 -114 84 -151 84 -121 0 18 79 92 115 107 74 31 182 5
221 -53 37 -55 49 -97 59 -208 2 -16 6 -64 10 -105 5 -41 8 -80 8 -85 0 -6 49
-58 107 -117 l108 -107 21 59 c35 96 114 151 204 144 90 -8 139 -59 208 -217
81 -188 59 -166 283 -281 l200 -102 1 -62 c0 -34 -2 -62 -5 -62 -2 0 -114 55
-247 123 l-242 122 -72 163 c-74 167 -99 202 -146 202 -33 0 -69 -39 -83 -90
-6 -23 -10 -93 -8 -161 l3 -119 -222 222 c-122 122 -221 228 -221 237 0 15 -5
66 -17 161 -3 19 -7 64 -10 100 -7 78 -22 111 -57 128 -30 14 -72 3 -95 -26
-26 -31 -61 -116 -84 -200 -12 -45 -25 -82 -28 -82 -3 0 -68 123 -144 273
l-138 272 26 125 c15 69 29 134 31 145 17 74 16 111 -3 134 -36 44 -103 33
-161 -28 -15 -16 -52 -65 -82 -110 -56 -82 -69 -95 -71 -63 0 9 -2 26 -4 37
-1 11 -5 43 -9 71 -4 28 -9 61 -11 74 -3 13 -7 42 -11 64 -3 22 -7 43 -9 46
-1 3 -6 31 -9 63 -4 31 -13 97 -21 145 l-14 87 89 156 c106 184 113 222 46
256 -31 17 -145 -20 -176 -57 -7 -8 -121 -94 -139 -105 -8 -5 -12 -4 -8 1 3 5
8 30 12 54 3 25 10 70 15 100 19 109 45 277 55 345 17 114 15 110 103 187 42
37 100 89 129 115 86 78 92 138 17 169 -33 14 -114 11 -139 -4 -5 -4 -14 -7
-20 -8 -5 -1 -43 -14 -83 -29 -41 -15 -76 -24 -78 -22 -3 3 57 126 133 275
l138 271 130 57 c72 32 148 67 170 78 83 44 86 114 5 153 -40 20 -59 22 -178
20 l-132 -2 222 221 223 221 120 12 c205 21 219 23 245 35 14 6 31 23 38 39
17 35 -4 83 -51 113 -30 20 -218 84 -245 84 -35 0 12 27 261 153 l272 138 145
-31 c228 -50 262 -48 283 13 19 58 -29 119 -161 206 -80 52 -95 67 -69 68 6 0
26 3 42 6 41 8 209 34 265 42 25 3 68 10 95 15 28 5 73 12 100 15 28 4 58 9
67 11 18 5 50 -11 228 -115 114 -67 155 -76 190 -41 25 25 26 79 3 128 -9 21
-46 75 -81 120 -35 46 -61 86 -58 89 3 3 38 1 78 -6 40 -7 116 -19 168 -27 52
-8 106 -16 120 -18 14 -3 72 -12 130 -21 58 -10 110 -23 115 -30 6 -6 46 -51
90 -100 44 -48 91 -101 104 -117 56 -66 129 -70 155 -7 20 46 12 100 -32 226
l-38 112 277 -142 278 -142 72 -163z"/>
</g>
</svg>
