<?xml version="1.0" encoding="UTF-8"?>
<svg xmlns="http://www.w3.org/2000/svg" width="41.379" height="40.566" viewBox="0 0 41.379 40.566">
  <g id="angies-svg" transform="translate(-1036.792 -66.318)">
    <path id="Fill_31" data-name="Fill 31" d="M4.511,2.493c0-.749-.395-1.115-1.2-1.115A1.4,1.4,0,0,0,1.785,2.95V5.574H0V.142H1.724v.79h.021A2.84,2.84,0,0,1,3.964,0c.922,0,2.33.355,2.33,1.957V5.574H4.511Z" transform="translate(1046.129 90.749)" fill="#fff"/>
    <path id="Fill_33" data-name="Fill 33" d="M3.556,7.734C2.1,7.734.4,7.53.222,5.939H2.128c.1.408.394.68,1.489.68.812,0,1.642-.184,1.642-1.551V4.632a2.771,2.771,0,0,1-2.168.8C.809,5.431,0,3.969,0,2.718,0,1.016,1.209,0,3.233,0A2.663,2.663,0,0,1,5.3.8H5.32V.144H7.042V5.137C7.042,6.933,5.967,7.734,3.556,7.734Zm-.01-6.476c-1.13,0-1.7.5-1.7,1.49s.573,1.49,1.7,1.49,1.713-.5,1.713-1.49S4.682,1.257,3.546,1.257Z" transform="translate(1053.271 90.749)" fill="#fff"/>
    <path id="Fill_35" data-name="Fill 35" d="M0,5.431H1.783V0H0Z" transform="translate(1061.407 90.893)" fill="#fff"/>
    <path id="Fill_37" data-name="Fill 37" d="M1.966,3.953c.082.465.405.768,1.328.768.811,0,1.287-.193,1.287-.586,0-.3-.152-.425-1.014-.548L1.946,3.363C.812,3.213.163,2.857.163,1.824.163.354,1.653,0,3.131,0c2.5,0,3.091.819,3.213,1.833H4.377c-.1-.556-.688-.72-1.2-.72-.469,0-1.167.041-1.167.579,0,.253.132.426.9.506l1.236.132c1.814.193,2.4.73,2.4,1.672,0,1.611-1.8,1.834-3.354,1.834-2.058,0-3.1-.6-3.193-1.883Z" transform="translate(1043.708 101.048)" fill="#fff"/>
    <path id="Fill_38" data-name="Fill 38" d="M3.587,5.836C1.951,5.836,0,5.329,0,2.918S1.951,0,3.587,0c2.28,0,3.486,1.118,3.486,3.233v.162H1.844v.02c0,.543.541,1.307,1.743,1.307a1.556,1.556,0,0,0,1.48-.708h1.9C6.485,5.223,5.346,5.836,3.587,5.836ZM3.546,1.114a1.566,1.566,0,0,0-1.7,1.206v.021H5.229V2.32C5.229,2,4.83,1.114,3.546,1.114Z" transform="translate(1064.103 90.689)" fill="#fff"/>
    <path id="Fill_39" data-name="Fill 39" d="M1.966,3.953c.081.465.405.768,1.328.768.812,0,1.286-.193,1.286-.586,0-.305-.152-.426-1.013-.548L1.946,3.363C.811,3.212.162,2.857.162,1.824.162.354,1.652,0,3.132,0c2.5,0,3.09.819,3.21,1.833H4.377c-.1-.557-.688-.72-1.206-.72-.465,0-1.165.041-1.165.579,0,.253.132.426.9.506l1.236.132c1.814.192,2.4.73,2.4,1.672,0,1.611-1.8,1.834-3.354,1.834-2.057,0-3.1-.6-3.192-1.883Z" transform="translate(1071.625 90.689)" fill="#fff"/>
    <path id="Fill_40" data-name="Fill 40" d="M11.051,22.832v0l-3.341-8.8h-.7A7.015,7.015,0,0,1,7.013,0h17.2a7.016,7.016,0,0,1,0,14.031H14.36l-3.308,8.8ZM7.022,3.086a3.929,3.929,0,0,0,0,7.859h2.65l1.4,5.652,1.441-5.652H24.155a3.929,3.929,0,1,0,0-7.859Z" transform="translate(1036.792 66.318)" fill="#fff"/>
    <path id="Fill_41" data-name="Fill 41" d="M1.124,0H2.909V2.114H4.347v1.2H2.909V5.844c0,.425.131.567.6.567.313,0,.587-.021.87-.041v1.2c-.334.04-1,.1-1.4.1-1.692,0-1.854-.628-1.854-1.609V3.311H0v-1.2H1.124Z" transform="translate(1050.609 99.138)" fill="#fff"/>
    <path id="Fill_42" data-name="Fill 42" d="M0,1.259H1.783V0H0Z" transform="translate(1061.407 88.966)" fill="#fff"/>
    <path id="Fill_43" data-name="Fill 43" d="M1.784,7.357H0V1.926H1.784v5.43Zm0-6.1H0V0H1.784V1.257Z" transform="translate(1040.936 99.325)" fill="#fff"/>
    <path id="Fill_44" data-name="Fill 44" d="M0,8.2H1.783V0H0Z" transform="translate(1037.762 98.482)" fill="#fff"/>
    <path id="Fill_45" data-name="Fill 45" d="M2.115,7.224H0L3.176,0H5.543L8.719,7.222H6.606L6.019,5.735H2.7L2.115,7.223ZM4.36,1.557,3.227,4.421H5.493Z" transform="translate(1037.244 89.108)" fill="#fff"/>
    <path id="Fill_46" data-name="Fill 46" d="M.612,1.259A.614.614,0,0,1,0,.63a.612.612,0,1,1,1.224,0A.614.614,0,0,1,.612,1.259Zm0-1.121A.469.469,0,0,0,.146.63a.466.466,0,1,0,.931,0A.469.469,0,0,0,.612.138ZM.5.982H.374V.3H.633C.809.3.891.363.891.5A.172.172,0,0,1,.718.682L.9.979l-.137,0L.592.687H.5V.981Z" transform="translate(1055.394 105.506)" fill="#fff"/>
  </g>
</svg>
