<?xml version="1.0" encoding="UTF-8"?>
<svg xmlns="http://www.w3.org/2000/svg" width="53.763" height="45.111" viewBox="0 0 53.763 45.111">
  <g id="homeadvisor" transform="translate(-1105.983 -63.081)">
    <path id="Fill_5" data-name="Fill 5" d="M8,12.929v-5.4H3.217v5.4H0V0H3.217V4.949H8V0h3.217V12.929Z" transform="translate(1106.907 81.176)" fill="#fff"/>
    <path id="Fill_7" data-name="Fill 7" d="M5.131,10.079A5.215,5.215,0,0,1,1.413,8.737,5,5,0,0,1,0,5.029a4.977,4.977,0,0,1,1.41-3.69A5.19,5.19,0,0,1,5.11,0,5.234,5.234,0,0,1,8.829,1.331a4.972,4.972,0,0,1,1.413,3.7,5.01,5.01,0,0,1-1.41,3.708A5.181,5.181,0,0,1,5.131,10.079Zm0-7.757C3.7,2.322,3.2,3.72,3.2,5.029S3.7,7.758,5.11,7.758c1.427,0,1.935-1.41,1.935-2.729a3.576,3.576,0,0,0-.461-1.91A1.651,1.651,0,0,0,5.131,2.322Z" transform="translate(1119.043 84.23)" fill="#fff"/>
    <path id="Fill_9" data-name="Fill 9" d="M11.931,9.875V4.338c0-1.019-.264-1.731-1.262-1.731C9.651,2.607,9.2,3.646,9.1,4.276v5.6H5.965V4.338c0-1.019-.263-1.731-1.262-1.731-1.018,0-1.465,1.039-1.567,1.669v5.6H0V.2H2.952L3.136,1.69A3.239,3.239,0,0,1,5.986,0,2.721,2.721,0,0,1,8.775,1.792,3.713,3.713,0,0,1,11.931,0c2,0,3.136,1.263,3.136,3.646V9.875Z" transform="translate(1130.12 84.23)" fill="#fff"/>
    <path id="Fill_11" data-name="Fill 11" d="M5.07,10.079a5.16,5.16,0,0,1-3.634-1.3A4.972,4.972,0,0,1,0,5.05,5.006,5.006,0,0,1,1.44,1.3,5.113,5.113,0,0,1,5.048,0c2.8,0,4.541,1.912,4.541,4.99V5.8H3.135c.054,1.249.944,2,2.383,2a5,5,0,0,0,2.788-.9L9.324,8.715A6.192,6.192,0,0,1,5.07,10.079ZM4.927,2.057A1.866,1.866,0,0,0,3.074,3.909H6.637a1.945,1.945,0,0,0-.466-1.347A1.64,1.64,0,0,0,4.927,2.057Z" transform="translate(1146.084 84.23)" fill="#fff"/>
    <path id="Fill_13" data-name="Fill 13" d="M1.5,12.544H0L4.681,0h1.7L11.1,12.542H9.461L8.276,9.226H2.687L1.5,12.543ZM5.491,1.4,3.1,7.981H7.861Z" transform="translate(1106.122 95.471)" fill="#fff"/>
    <path id="Fill_15" data-name="Fill 15" d="M3.871,13.116A3.5,3.5,0,0,1,1.047,11.77,5.414,5.414,0,0,1,0,8.4c0-2.724,1.7-4.7,4.048-4.7a3.1,3.1,0,0,1,2.9,1.719V0H8.4V12.938H7.17L6.952,11.5l-.009.015A3.454,3.454,0,0,1,3.871,13.116ZM4.3,4.859C2.68,4.859,1.5,6.346,1.5,8.4s1.138,3.536,2.705,3.536c1.626,0,2.805-1.487,2.805-3.536S5.873,4.859,4.3,4.859Z" transform="translate(1117.005 95.076)" fill="#fff"/>
    <path id="Fill_17" data-name="Fill 17" d="M5,9.047H3.476L0,0H1.541l2.7,7.625L6.953,0H8.475Z" transform="translate(1126.189 98.966)" fill="#fff"/>
    <path id="Fill_19" data-name="Fill 19" d="M1.759,13.1H.317V4.049H1.759v9.046ZM1.047,2.034A1.017,1.017,0,1,1,1.027,0a1.017,1.017,0,1,1,.02,2.034Z" transform="translate(1135.215 94.918)" fill="#fff"/>
    <path id="Fill_21" data-name="Fill 21" d="M6.024,8.611a3.727,3.727,0,0,1-2.548.83A4.7,4.7,0,0,1,0,7.841l.848-.889A3.879,3.879,0,0,0,3.515,8.276c1.165,0,1.937-.474,1.937-1.363s-.929-1.2-1.443-1.4C3.5,5.333,2.686,5.095,2.252,4.9a2.5,2.5,0,0,1-1.8-2.292C.455,1.047,1.8,0,3.673,0A4.376,4.376,0,0,1,6.755,1.205l-.672.987a3.6,3.6,0,0,0-2.41-1.047c-1.027,0-1.857.415-1.857,1.284,0,.888.87,1.165,1.482,1.383.593.217,1.265.415,1.7.593a2.6,2.6,0,0,1,1.858,2.31,2.542,2.542,0,0,1-.83,1.9" transform="translate(1137.823 98.75)" fill="#fff"/>
    <path id="Fill_23" data-name="Fill 23" d="M4.286,9.422C1.722,9.422,0,7.533,0,4.721A4.975,4.975,0,0,1,1.187,1.287,4.071,4.071,0,0,1,4.286,0a4.07,4.07,0,0,1,3.1,1.287A4.976,4.976,0,0,1,8.571,4.721a4.95,4.95,0,0,1-1.18,3.417A4.079,4.079,0,0,1,4.286,9.422Zm0-8.258C2.568,1.165,1.5,2.527,1.5,4.721S2.568,8.257,4.286,8.257,7.07,6.9,7.07,4.721,6,1.165,4.286,1.165Z" transform="translate(1145.209 98.769)" fill="#fff"/>
    <path id="Fill_25" data-name="Fill 25" d="M4.721,1.521A1.528,1.528,0,0,0,4.088,1.4a2.161,2.161,0,0,0-1.343.434,3.351,3.351,0,0,0-1.3,2.173V9.245H0V.2H1.324l.118,1.817A3.252,3.252,0,0,1,4.227,0a2.319,2.319,0,0,1,.712.1Z" transform="translate(1154.807 98.769)" fill="#fff"/>
    <path id="Fill_27" data-name="Fill 27" d="M12.019,6.63l-.407-.408L5.39,0,0,5.39v5.221A1.392,1.392,0,0,0,1.392,12H7.756l4.857,4.856V12h2.72a1.393,1.393,0,0,0,1.393-1.392V6.63H12.019Z" transform="translate(1110.181 66.24)" fill="#fff"/>
    <path id="Fill_29" data-name="Fill 29" d="M16.734,0H8.4L0,8.4H2.381L9.588,1.19,16.8,8.4h8.336Z" transform="translate(1105.983 63.081)" fill="#fff"/>
  </g>
</svg>
