<?xml version="1.0" encoding="UTF-8"?>
<svg xmlns="http://www.w3.org/2000/svg" width="59.94" height="42.019" viewBox="0 0 59.94 42.019">
  <path id="houzz-svg" d="M31.587,42.019a5.568,5.568,0,0,1-1.981-.348,4.511,4.511,0,0,1-3.075-4.632V30.844h2.4V36.8a3.868,3.868,0,0,0,.141,1.009,2.729,2.729,0,0,0,.452.931,2.352,2.352,0,0,0,.813.681,3.137,3.137,0,0,0,2.506,0,2.362,2.362,0,0,0,.812-.681,2.693,2.693,0,0,0,.453-.931,3.9,3.9,0,0,0,.141-1.009V30.844h2.4v6.195a4.584,4.584,0,0,1-3.049,4.623A5.644,5.644,0,0,1,31.587,42.019Zm-13.447-.01a5.789,5.789,0,0,1-2.272-.447,5.861,5.861,0,0,1-1.835-1.216,5.668,5.668,0,0,1-1.677-4.053,5.56,5.56,0,0,1,.449-2.229,5.8,5.8,0,0,1,10.668,0,5.56,5.56,0,0,1,.449,2.229,5.668,5.668,0,0,1-1.677,4.053,5.867,5.867,0,0,1-1.834,1.216A5.8,5.8,0,0,1,18.14,42.009Zm0-9.15a3.388,3.388,0,0,0-1.353.258,2.981,2.981,0,0,0-1.012.7,3.083,3.083,0,0,0-.64,1.075,4.325,4.325,0,0,0,0,2.8,3.079,3.079,0,0,0,.64,1.076,2.966,2.966,0,0,0,1.012.7,3.659,3.659,0,0,0,2.705,0,2.989,2.989,0,0,0,1.011-.7,3.116,3.116,0,0,0,.64-1.076,4.341,4.341,0,0,0,0-2.8,3.111,3.111,0,0,0-.64-1.075,2.993,2.993,0,0,0-1.011-.7A3.4,3.4,0,0,0,18.14,32.859ZM2.415,41.75H0V26.995H2.415v4.589a4.835,4.835,0,0,1,2.994-1,4.918,4.918,0,0,1,1.867.362,4.3,4.3,0,0,1,2.633,4.209v6.594H7.5v-5.8a2.655,2.655,0,0,0-2.641-2.955c-2.123,0-2.44,1.851-2.44,2.955v5.8Zm57.525,0H50.828V39.666l5.7-6.671h-5.5v-2.15h8.6V32.9L53.891,39.6H59.94v2.15Zm-11.411,0H39.417V39.666l5.7-6.671h-5.5v-2.15h8.6V32.9L42.48,39.6h6.049v2.15ZM28.668,25.02H20.328V0h5.837V5.838l16.68,4.781v14.4h-8.34v-8.34H28.668v8.34Z" fill="#fff"/>
</svg>
