<?xml version="1.0" encoding="UTF-8"?>
<svg id="Logo_White" xmlns="http://www.w3.org/2000/svg" width="300" height="74" viewBox="0 0 300 74">
  <g id="Desc" transform="translate(138 62)">
    <path id="Fill_1" data-name="Fill 1" d="M2.322,10.672H0V0H3.415A3.4,3.4,0,0,1,5.821.806a3.162,3.162,0,0,1,.857,2.4,3.783,3.783,0,0,1-.136,1.055,2.947,2.947,0,0,1-.352.8,2.321,2.321,0,0,1-.488.543,1.89,1.89,0,0,1-.526.3L6.994,10.67H4.455L3.028,6.421H2.322v4.251Zm0-8.654v2.7h.709a1.347,1.347,0,0,0,.9-.325,1.3,1.3,0,0,0,.385-1.047A1.687,1.687,0,0,0,4.2,2.682a1.1,1.1,0,0,0-.294-.406.992.992,0,0,0-.4-.2,1.825,1.825,0,0,0-.428-.053Z" transform="translate(0 0.301)" fill="#ff5100"/>
    <path id="Fill_3" data-name="Fill 3" d="M0,10.671V0H5.155V2.125H2.307V4.22H4.929V6.21H2.307V8.5H5.336v2.17Z" transform="translate(8.577 0.302)" fill="#ff5100"/>
    <path id="Fill_5" data-name="Fill 5" d="M4.612,10.671,2.14,4.175H2.1l.06,6.5H0V0H2.653L5.11,6.587h.045L5.11,0H7.19V10.671Z" transform="translate(15.752 0.302)" fill="#ff5100"/>
    <path id="Fill_7" data-name="Fill 7" d="M4.1,11.244a3.59,3.59,0,0,1-1.712-.407A3.761,3.761,0,0,1,1.1,9.692,5.6,5.6,0,0,1,.287,7.9,8.758,8.758,0,0,1,0,5.592a8.839,8.839,0,0,1,.279-2.3A5.42,5.42,0,0,1,1.085,1.53,3.729,3.729,0,0,1,2.374.4,3.68,3.68,0,0,1,4.1,0,3.657,3.657,0,0,1,5.811.4,3.723,3.723,0,0,1,7.1,1.53a5.527,5.527,0,0,1,.814,1.763,8.675,8.675,0,0,1,.286,2.3A8.832,8.832,0,0,1,7.914,7.9,5.624,5.624,0,0,1,7.1,9.692a3.745,3.745,0,0,1-1.288,1.145A3.588,3.588,0,0,1,4.1,11.244Zm0-8.907a1.116,1.116,0,0,0-.716.248,1.882,1.882,0,0,0-.512.686A3.968,3.968,0,0,0,2.57,4.3a7.85,7.85,0,0,0-.1,1.289,7.961,7.961,0,0,0,.1,1.3,3.955,3.955,0,0,0,.3,1.04,1.946,1.946,0,0,0,.512.693,1.094,1.094,0,0,0,.716.256,1.061,1.061,0,0,0,.707-.256,1.988,1.988,0,0,0,.5-.693,4.2,4.2,0,0,0,.311-1.04,7.554,7.554,0,0,0,.1-1.3,7.449,7.449,0,0,0-.1-1.289,4.218,4.218,0,0,0-.311-1.032,1.921,1.921,0,0,0-.5-.686A1.082,1.082,0,0,0,4.1,2.336Z" transform="translate(24.826 0.015)" fill="#ff5100"/>
    <path id="Fill_9" data-name="Fill 9" d="M5.637,10.671H2.577L0,0H2.728L4.175,7.807H4.2L5.637,0H8.26Z" transform="translate(33.855 0.302)" fill="#ff5100"/>
    <path id="Fill_11" data-name="Fill 11" d="M2.412,10.672H0L2.593,0H5.622L8.2,10.67H5.683L5.245,8.727h-2.4l-.437,1.944ZM4.024,2.321l-.9,4.537H4.943L4.085,2.321Z" transform="translate(42.34 0.302)" fill="#ff5100"/>
    <path id="Fill_13" data-name="Fill 13" d="M4.325,2.05v8.622H1.959V2.05H0V0H6.285V2.05Z" transform="translate(50.662 0.301)" fill="#ff5100"/>
    <path id="Fill_15" data-name="Fill 15" d="M0,10.671H2.427V0H0Z" transform="translate(58.302 0.301)" fill="#ff5100"/>
    <path id="Fill_17" data-name="Fill 17" d="M4.1,11.244a3.59,3.59,0,0,1-1.712-.407A3.761,3.761,0,0,1,1.1,9.692,5.6,5.6,0,0,1,.287,7.9,8.758,8.758,0,0,1,0,5.592a8.839,8.839,0,0,1,.279-2.3A5.42,5.42,0,0,1,1.085,1.53,3.729,3.729,0,0,1,2.374.4,3.68,3.68,0,0,1,4.1,0,3.657,3.657,0,0,1,5.811.4,3.723,3.723,0,0,1,7.1,1.53a5.527,5.527,0,0,1,.814,1.763,8.675,8.675,0,0,1,.286,2.3A8.832,8.832,0,0,1,7.914,7.9,5.624,5.624,0,0,1,7.1,9.692a3.745,3.745,0,0,1-1.288,1.145A3.588,3.588,0,0,1,4.1,11.244Zm0-8.907a1.116,1.116,0,0,0-.716.248,1.882,1.882,0,0,0-.512.686A3.968,3.968,0,0,0,2.57,4.3a7.85,7.85,0,0,0-.1,1.289,7.961,7.961,0,0,0,.1,1.3,3.955,3.955,0,0,0,.3,1.04,1.946,1.946,0,0,0,.512.693,1.094,1.094,0,0,0,.716.256,1.061,1.061,0,0,0,.707-.256,1.988,1.988,0,0,0,.5-.693,4.2,4.2,0,0,0,.311-1.04,7.554,7.554,0,0,0,.1-1.3,7.449,7.449,0,0,0-.1-1.289,4.218,4.218,0,0,0-.311-1.032,1.921,1.921,0,0,0-.5-.686A1.082,1.082,0,0,0,4.1,2.336Z" transform="translate(62.612 0.015)" fill="#ff5100"/>
    <path id="Fill_18" data-name="Fill 18" d="M4.612,10.671,2.14,4.175H2.1l.06,6.5H0V0H2.653L5.11,6.587h.045L5.11,0H7.19V10.671Z" transform="translate(72.697 0.302)" fill="#ff5100"/>
    <path id="Fill_19" data-name="Fill 19" d="M5.216,2.834a1.931,1.931,0,0,0-.634-.49,1.73,1.73,0,0,0-.753-.174,1.148,1.148,0,0,0-.731.257,1.017,1.017,0,0,0-.324.846.958.958,0,0,0,.332.777,5.389,5.389,0,0,0,.979.612q.363.181.767.43a3.538,3.538,0,0,1,.735.612,3.06,3.06,0,0,1,.554.868,3,3,0,0,1,.221,1.2A3.931,3.931,0,0,1,6.088,9.29a3,3,0,0,1-1.8,1.735,3.663,3.663,0,0,1-1.254.22,4.171,4.171,0,0,1-1.755-.362A4.323,4.323,0,0,1,0,10.039L1.237,8.23a2.753,2.753,0,0,0,.8.58,2.091,2.091,0,0,0,.919.219,1.036,1.036,0,0,0,.74-.287,1.05,1.05,0,0,0,.3-.8,1.043,1.043,0,0,0-.361-.836,5.375,5.375,0,0,0-1.055-.656,6.741,6.741,0,0,1-.822-.467,3.084,3.084,0,0,1-.678-.618,2.736,2.736,0,0,1-.46-.844A3.545,3.545,0,0,1,.452,3.376,3.658,3.658,0,0,1,.746,1.847,2.993,2.993,0,0,1,1.516.8,3.174,3.174,0,0,1,2.57.2,3.624,3.624,0,0,1,3.738,0,4.092,4.092,0,0,1,5.306.285a3.294,3.294,0,0,1,1.161.778Z" transform="translate(81.409 0.015)" fill="#ff5100"/>
    <path id="Fill_20" data-name="Fill 20" d="M3.029,11.2A2.981,2.981,0,0,1,.813,10.37,3.276,3.276,0,0,1,0,7.988,3.174,3.174,0,0,1,.5,6.172,3.5,3.5,0,0,1,1.763,5.034,4.059,4.059,0,0,1,1.2,4,3.448,3.448,0,0,1,1,2.8a3,3,0,0,1,.218-1.167,2.563,2.563,0,0,1,.6-.882A2.675,2.675,0,0,1,2.72.2,3.164,3.164,0,0,1,3.843,0,3.112,3.112,0,0,1,4.9.173a2.357,2.357,0,0,1,.837.513,2.345,2.345,0,0,1,.55.829,3.007,3.007,0,0,1,.2,1.123,2.624,2.624,0,0,1-.157.927,2.955,2.955,0,0,1-.43.761,3.756,3.756,0,0,1-.626.625,8.936,8.936,0,0,1-.73.52l.888,1.236.74-1.582H8.44L6.722,8.335l1.9,2.638H5.938l-.618-.889a2.437,2.437,0,0,1-.882.791A2.864,2.864,0,0,1,3.029,11.2ZM2.8,6.526a1.334,1.334,0,0,0-.421.46,1.586,1.586,0,0,0-.212.851,1.6,1.6,0,0,0,.287,1,.922.922,0,0,0,.768.369.825.825,0,0,0,.618-.233A1.632,1.632,0,0,0,4.174,8.5L2.8,6.526ZM3.858,1.748a.611.611,0,0,0-.543.317,1.383,1.383,0,0,0-.2.738A2.169,2.169,0,0,0,3.632,4.19,2.535,2.535,0,0,0,4.25,3.61a1.341,1.341,0,0,0,.271-.837,1.486,1.486,0,0,0-.165-.731A.539.539,0,0,0,3.858,1.748Z" transform="translate(92.518 0)" fill="#ff5100"/>
    <path id="Fill_21" data-name="Fill 21" d="M2.322,10.672H0V0H3.415A3.4,3.4,0,0,1,5.821.806a3.162,3.162,0,0,1,.857,2.4,3.783,3.783,0,0,1-.136,1.055,2.947,2.947,0,0,1-.352.8,2.321,2.321,0,0,1-.488.543,1.89,1.89,0,0,1-.526.3L6.994,10.67H4.455L3.028,6.421H2.322v4.251Zm0-8.654v2.7h.709a1.347,1.347,0,0,0,.9-.325,1.3,1.3,0,0,0,.385-1.047A1.687,1.687,0,0,0,4.2,2.682a1.1,1.1,0,0,0-.294-.406.992.992,0,0,0-.4-.2,1.825,1.825,0,0,0-.428-.053Z" transform="translate(106.021 0.301)" fill="#ff5100"/>
    <path id="Fill_22" data-name="Fill 22" d="M4.1,11.244a3.59,3.59,0,0,1-1.712-.407A3.761,3.761,0,0,1,1.1,9.692,5.6,5.6,0,0,1,.287,7.9,8.758,8.758,0,0,1,0,5.592a8.839,8.839,0,0,1,.279-2.3A5.42,5.42,0,0,1,1.085,1.53,3.729,3.729,0,0,1,2.374.4,3.68,3.68,0,0,1,4.1,0,3.657,3.657,0,0,1,5.811.4,3.723,3.723,0,0,1,7.1,1.53a5.527,5.527,0,0,1,.814,1.763,8.675,8.675,0,0,1,.286,2.3A8.832,8.832,0,0,1,7.914,7.9,5.624,5.624,0,0,1,7.1,9.692a3.745,3.745,0,0,1-1.288,1.145A3.588,3.588,0,0,1,4.1,11.244Zm0-8.907a1.116,1.116,0,0,0-.716.248,1.882,1.882,0,0,0-.512.686A3.968,3.968,0,0,0,2.57,4.3a7.85,7.85,0,0,0-.1,1.289,7.961,7.961,0,0,0,.1,1.3,3.955,3.955,0,0,0,.3,1.04,1.946,1.946,0,0,0,.512.693,1.094,1.094,0,0,0,.716.256,1.061,1.061,0,0,0,.707-.256,1.988,1.988,0,0,0,.5-.693,4.2,4.2,0,0,0,.311-1.04,7.554,7.554,0,0,0,.1-1.3,7.449,7.449,0,0,0-.1-1.289,4.218,4.218,0,0,0-.311-1.032,1.921,1.921,0,0,0-.5-.686A1.082,1.082,0,0,0,4.1,2.336Z" transform="translate(114.162 0.015)" fill="#ff5100"/>
    <path id="Fill_23" data-name="Fill 23" d="M4.1,11.244a3.59,3.59,0,0,1-1.712-.407A3.761,3.761,0,0,1,1.1,9.692,5.6,5.6,0,0,1,.287,7.9,8.758,8.758,0,0,1,0,5.592a8.839,8.839,0,0,1,.279-2.3A5.42,5.42,0,0,1,1.085,1.53,3.729,3.729,0,0,1,2.374.4,3.68,3.68,0,0,1,4.1,0,3.657,3.657,0,0,1,5.811.4,3.723,3.723,0,0,1,7.1,1.53a5.527,5.527,0,0,1,.814,1.763,8.675,8.675,0,0,1,.286,2.3A8.832,8.832,0,0,1,7.914,7.9,5.624,5.624,0,0,1,7.1,9.692a3.745,3.745,0,0,1-1.288,1.145A3.588,3.588,0,0,1,4.1,11.244Zm0-8.907a1.116,1.116,0,0,0-.716.248,1.882,1.882,0,0,0-.512.686A3.968,3.968,0,0,0,2.57,4.3a7.85,7.85,0,0,0-.1,1.289,7.961,7.961,0,0,0,.1,1.3,3.955,3.955,0,0,0,.3,1.04,1.946,1.946,0,0,0,.512.693,1.094,1.094,0,0,0,.716.256,1.061,1.061,0,0,0,.707-.256,1.988,1.988,0,0,0,.5-.693,4.2,4.2,0,0,0,.311-1.04,7.554,7.554,0,0,0,.1-1.3,7.449,7.449,0,0,0-.1-1.289,4.218,4.218,0,0,0-.311-1.032,1.921,1.921,0,0,0-.5-.686A1.082,1.082,0,0,0,4.1,2.336Z" transform="translate(123.809 0.015)" fill="#ff5100"/>
    <path id="Fill_24" data-name="Fill 24" d="M2.427,2.17V4.356H4.975V6.42H2.443v4.251H0V0H5.2V2.17Z" transform="translate(133.892 0.302)" fill="#ff5100"/>
    <path id="Fill_25" data-name="Fill 25" d="M0,10.671H2.427V0H0Z" transform="translate(140.826 0.301)" fill="#ff5100"/>
    <path id="Fill_26" data-name="Fill 26" d="M4.612,10.671,2.14,4.175H2.1l.06,6.5H0V0H2.653L5.11,6.587h.045L5.11,0H7.19V10.671Z" transform="translate(145.573 0.302)" fill="#ff5100"/>
    <path id="Fill_27" data-name="Fill 27" d="M5.983,10.958a5.39,5.39,0,0,1-1.7.241,3.884,3.884,0,0,1-1.8-.407A3.887,3.887,0,0,1,1.137,9.654,5.3,5.3,0,0,1,.294,7.9,8.2,8.2,0,0,1,0,5.622,8.28,8.28,0,0,1,.294,3.339,5.6,5.6,0,0,1,1.129,1.56,3.864,3.864,0,0,1,2.433.407,3.545,3.545,0,0,1,4.129,0,4.011,4.011,0,0,1,5.946.37,3.252,3.252,0,0,1,7.1,1.3L5.788,3.06A1.74,1.74,0,0,0,4.3,2.306a1.432,1.432,0,0,0-.862.264,2.072,2.072,0,0,0-.606.716,3.646,3.646,0,0,0-.356,1.055,6.979,6.979,0,0,0-.113,1.281A7.364,7.364,0,0,0,2.472,6.9a3.633,3.633,0,0,0,.341,1.055,2.114,2.114,0,0,0,.591.724,1.368,1.368,0,0,0,.856.271,1.394,1.394,0,0,0,.849-.226V6.738H3.963V4.643H7.219v5.682a4.215,4.215,0,0,1-1.236.633" transform="translate(154.647 0.015)" fill="#ff5100"/>
  </g>
  <g id="Evergreen" transform="translate(61.13 20.097)">
    <path id="Fill_28" data-name="Fill 28" d="M17.885,0V6.11H6.824v6.245H17.617v6.11H6.824V25.2H17.841v6.289H0V0Z" transform="translate(0 0.848)" fill="#fff"/>
    <path id="Fill_29" data-name="Fill 29" d="M7.493,0,13.6,18.108q.669,2.074,1.2,4.148a23.119,23.119,0,0,1,.491,2.409c.491-1.829.981-3.613,1.516-5.4.4-1.249.8-2.409,1.2-3.613L23.281,0h7.4L18.375,31.489h-6.6L0,0Z" transform="translate(19.762 0.848)" fill="#fff"/>
    <path id="Fill_30" data-name="Fill 30" d="M17.885,0V6.11H6.824v6.245H17.617v6.11H6.824V25.2H17.841v6.289H0V0Z" transform="translate(52.992 0.848)" fill="#fff"/>
    <path id="Fill_31" data-name="Fill 31" d="M6.645,31.49H0V0H8.429c.849,0,1.651,0,2.5.045,2.921.115,6.55.675,8.7,4.014A9.781,9.781,0,0,1,21.1,9.322a10.486,10.486,0,0,1-.87,4.237,7.491,7.491,0,0,1-2.743,3.3A9.067,9.067,0,0,1,14,18.108l9.1,13.38-8.116,0L6.645,18.2V31.489Zm.045-26v8.3H9.143c1.972-.049,3.686-.23,4.683-1.963a4.346,4.346,0,0,0,.58-2.23A3.857,3.857,0,0,0,13.514,7c-1.142-1.317-2.783-1.469-4.505-1.516Z" transform="translate(76.189 0.848)" fill="#fff"/>
    <path id="Fill_32" data-name="Fill 32" d="M24.441,10.437a7.34,7.34,0,0,0-1.159-1.382A10.241,10.241,0,0,0,16.1,6.289,9.065,9.065,0,0,0,10.08,8.43a10.009,10.009,0,0,0-3.345,7.939,11.233,11.233,0,0,0,1.739,6.422,9.166,9.166,0,0,0,7.8,4.1,8.549,8.549,0,0,0,6.958-3.122,13.921,13.921,0,0,0,1.338-2.364H16.19V15.521l15.789.045c0,1.785.134,6.78-3.077,11.195a15.768,15.768,0,0,1-12.891,6.244,21.936,21.936,0,0,1-3.835-.4A14.6,14.6,0,0,1,2.81,26.36,16.49,16.49,0,0,1,0,16.547a17.292,17.292,0,0,1,.446-4.326A16.833,16.833,0,0,1,4.058,5.085a21.542,21.542,0,0,1,2.32-2.1A16.056,16.056,0,0,1,16.19,0a16.3,16.3,0,0,1,9.5,2.721,15.241,15.241,0,0,1,2.855,2.453,12.987,12.987,0,0,1,1.471,2.007Z" transform="translate(100.41)" fill="#fff"/>
    <path id="Fill_33" data-name="Fill 33" d="M6.645,31.49H0V0H8.429c.849,0,1.651,0,2.5.045,2.921.115,6.55.675,8.7,4.014A9.781,9.781,0,0,1,21.1,9.322a10.486,10.486,0,0,1-.87,4.237,7.491,7.491,0,0,1-2.743,3.3A9.071,9.071,0,0,1,14,18.108l9.1,13.38-8.116,0L6.645,18.2V31.489Zm.045-26v8.3H9.143c1.972-.049,3.686-.23,4.683-1.963a4.346,4.346,0,0,0,.58-2.23A3.857,3.857,0,0,0,13.514,7c-1.142-1.317-2.783-1.469-4.505-1.516Z" transform="translate(137.477 0.848)" fill="#fff"/>
    <path id="Fill_34" data-name="Fill 34" d="M17.885,0V6.11H6.824v6.245H17.617v6.11H6.824V25.2H17.841v6.289H0V0Z" transform="translate(163.438 0.848)" fill="#fff"/>
    <path id="Fill_35" data-name="Fill 35" d="M17.885,0V6.11H6.824v6.245H17.617v6.11H6.824V25.2H17.841v6.289H0V0Z" transform="translate(186.633 0.848)" fill="#fff"/>
    <path id="Fill_36" data-name="Fill 36" d="M6.2,0,16.77,15.031a49.926,49.926,0,0,1,4.639,7.85c-.179-1.918-.357-3.836-.4-5.754-.09-1.427-.09-2.855-.134-4.282L20.74,0h6.422V31.489h-6.11L10.08,15.833C9.1,14.451,8.118,13.024,7.225,11.6c-.49-.8-.981-1.651-1.471-2.453.089,1.293.222,2.586.267,3.835.045,1.16.089,2.275.134,3.435l.313,15.075H0V0Z" transform="translate(209.918 0.848)" fill="#fff"/>
  </g>
  <g id="Group_2" data-name="Group 2">
    <path id="Fill_37" data-name="Fill 37" d="M0,50.952H50.952V0H0Z" fill="#ff5100"/>
    <path id="Fill_38" data-name="Fill 38" d="M17.575,41.607h0l-4.043-2.068L12.6,37.431a.936.936,0,0,0-.472-.532A.412.412,0,0,0,12,36.88a.648.648,0,0,0-.568.409,1.725,1.725,0,0,0-.164.773c.008.275.034,1.317.039,1.523v.006L8.1,36.375,7.86,34.081a.936.936,0,0,0-.283-.652.47.47,0,0,0-.275-.082.7.7,0,0,0-.507.239,1.711,1.711,0,0,0-.4.684c-.085.291-.436,1.467-.436,1.467l-2.057-4.05.482-2.255a.943.943,0,0,0-.068-.706.533.533,0,0,0-.429-.194.743.743,0,0,0-.364.1,1.729,1.729,0,0,0-.586.528l-.868,1.26-.7-4.487,1.156-1.994a.937.937,0,0,0,.154-.693.577.577,0,0,0-.566-.35.808.808,0,0,0-.159.016,1.74,1.74,0,0,0-.722.32c-.217.168-1.046.8-1.21.927l0,0,.718-4.485,1.715-1.541a.939.939,0,0,0,.361-.612.611.611,0,0,0-.586-.541,1.983,1.983,0,0,0-.221-.013,1.682,1.682,0,0,0-.565.1L0,17.576l2.068-4.043L4.175,12.6c.018-.007.434-.17.532-.471a.61.61,0,0,0-.39-.7,1.752,1.752,0,0,0-.727-.164H3.545l-1.53.039L5.232,8.1l2.293-.239a.944.944,0,0,0,.652-.283A.615.615,0,0,0,8.02,6.8,1.7,1.7,0,0,0,7.337,6.4c-.292-.086-1.467-.436-1.467-.436L9.92,3.909l2.255.482a1.231,1.231,0,0,0,.3.038.682.682,0,0,0,.4-.107.609.609,0,0,0,.094-.792,1.751,1.751,0,0,0-.528-.587c-.219-.149-1.014-.7-1.252-.862l-.009-.006,4.486-.7,2,1.155a1.1,1.1,0,0,0,.538.177.5.5,0,0,0,.155-.023.613.613,0,0,0,.334-.725,1.74,1.74,0,0,0-.321-.721C18.2,1.01,17.525.127,17.45.029L17.444.021l4.486.718L23.47,2.454a.939.939,0,0,0,.611.361.613.613,0,0,0,.541-.586,1.717,1.717,0,0,0-.082-.787C24.447,1.183,24.1.2,24.032,0V0l4.041,2.07.936,2.107a.933.933,0,0,0,.471.532.411.411,0,0,0,.128.02.65.65,0,0,0,.568-.409,1.741,1.741,0,0,0,.164-.772c-.008-.275-.034-1.318-.039-1.524V2.016l3.207,3.217.239,2.293a.928.928,0,0,0,.283.652.47.47,0,0,0,.275.082.7.7,0,0,0,.507-.239,1.732,1.732,0,0,0,.4-.684c.086-.291.436-1.466.436-1.466L37.7,9.921l-.482,2.255a.96.96,0,0,0,.068.706.527.527,0,0,0,.428.194.749.749,0,0,0,.364-.1,1.72,1.72,0,0,0,.586-.529l.868-1.26.7,4.487-1.156,2a.926.926,0,0,0-.153.693.573.573,0,0,0,.563.35.8.8,0,0,0,.161-.017,1.722,1.722,0,0,0,.722-.32c.226-.174,1.109-.85,1.206-.924l.009-.007-.717,4.486-1.715,1.541a.936.936,0,0,0-.361.611.611.611,0,0,0,.586.541,1.962,1.962,0,0,0,.224.013,1.672,1.672,0,0,0,.562-.1c.26-.094,1.244-.439,1.438-.508h.006l-2.069,4.041-2.107.935c-.018.007-.435.17-.533.471a.612.612,0,0,0,.39.7,1.762,1.762,0,0,0,.729.165h.044c.275-.008,1.318-.034,1.524-.039h.006l-3.217,3.207-2.294.239a.927.927,0,0,0-.651.283.61.61,0,0,0,.156.782,1.712,1.712,0,0,0,.684.4c.289.084,1.455.432,1.467.436L31.686,37.7l-2.255-.482a1.242,1.242,0,0,0-.307-.039.677.677,0,0,0-.4.106.612.612,0,0,0-.094.792,1.734,1.734,0,0,0,.529.587l1.259.868-4.487.7-1.994-1.157a1.147,1.147,0,0,0-.54-.176.5.5,0,0,0-.153.022.611.611,0,0,0-.334.725,1.751,1.751,0,0,0,.32.721c.169.218.8,1.047.927,1.211l0,0Zm-5.582-5.36a1.061,1.061,0,0,1,.327.051,1.535,1.535,0,0,1,.86.9l.835,1.884,3.317,1.7,5.366-.06a2.383,2.383,0,0,1-.407-.939,1.229,1.229,0,0,1,.757-1.449,1.134,1.134,0,0,1,.351-.054,1.71,1.71,0,0,1,.87.273l1.785,1.031,2.7-.423a2.376,2.376,0,0,1-.676-.766,1.232,1.232,0,0,1,.271-1.613,1.288,1.288,0,0,1,.774-.228,1.832,1.832,0,0,1,.457.058l2.016.431,2.44-1.239a2.366,2.366,0,0,1-.88-.518,1.233,1.233,0,0,1-.239-1.618,1.531,1.531,0,0,1,1.117-.541l2.051-.214,1.937-1.932h-.007a2.381,2.381,0,0,1-.99-.221,1.233,1.233,0,0,1-.728-1.465,1.558,1.558,0,0,1,.9-.859l1.884-.837,1.246-2.435a2.327,2.327,0,0,1-.724.114,2.593,2.593,0,0,1-.294-.017,1.233,1.233,0,0,1-1.145-1.168,1.541,1.541,0,0,1,.586-1.094L40.28,21.61l.432-2.7a2.374,2.374,0,0,1-.938.406,1.425,1.425,0,0,1-.285.029,1.2,1.2,0,0,1-1.165-.786,1.551,1.551,0,0,1,.219-1.221l1.032-1.784-.424-2.7a2.377,2.377,0,0,1-.766.677,1.385,1.385,0,0,1-.679.182,1.132,1.132,0,0,1-.934-.454,1.534,1.534,0,0,1-.17-1.229l.431-2.017L35.8,7.568a2.392,2.392,0,0,1-.519.88,1.337,1.337,0,0,1-.974.444,1.087,1.087,0,0,1-.644-.205,1.531,1.531,0,0,1-.541-1.117L32.9,5.52,30.972,3.583a2.383,2.383,0,0,1-.222,1,1.281,1.281,0,0,1-1.136.78,1.059,1.059,0,0,1-.328-.052,1.535,1.535,0,0,1-.86-.9l-.837-1.884L25.152,1.283a2.324,2.324,0,0,1,.1,1.018,1.231,1.231,0,0,1-1.167,1.145,1.534,1.534,0,0,1-1.094-.586L21.609,1.326l-2.7-.432a2.383,2.383,0,0,1,.407.939,1.234,1.234,0,0,1-.757,1.45,1.132,1.132,0,0,1-.35.054,1.707,1.707,0,0,1-.872-.274L15.551,2.031l-2.7.424a2.366,2.366,0,0,1,.676.766,1.232,1.232,0,0,1-.273,1.613,1.28,1.28,0,0,1-.77.227A1.841,1.841,0,0,1,12.023,5l-2.016-.43L7.567,5.811a2.362,2.362,0,0,1,.88.519,1.233,1.233,0,0,1,.239,1.618A1.531,1.531,0,0,1,7.57,8.49L5.519,8.7,3.582,10.635h.007a2.382,2.382,0,0,1,.99.221,1.233,1.233,0,0,1,.728,1.465,1.526,1.526,0,0,1-.9.859l-1.884.837L1.283,16.454a2.32,2.32,0,0,1,.724-.114,2.636,2.636,0,0,1,.293.017,1.233,1.233,0,0,1,1.145,1.168,1.541,1.541,0,0,1-.586,1.094L1.326,20,.894,22.7a2.387,2.387,0,0,1,.937-.406,1.429,1.429,0,0,1,.285-.029,1.2,1.2,0,0,1,1.166.786,1.536,1.536,0,0,1-.22,1.221L2.03,26.056l.424,2.7a2.382,2.382,0,0,1,.766-.677A1.387,1.387,0,0,1,3.9,27.9a1.135,1.135,0,0,1,.934.453A1.539,1.539,0,0,1,5,29.584L4.572,31.6,5.81,34.039a2.366,2.366,0,0,1,.519-.879,1.337,1.337,0,0,1,.974-.444,1.087,1.087,0,0,1,.644.205,1.531,1.531,0,0,1,.541,1.116L8.7,36.087l1.931,1.938a2.368,2.368,0,0,1,.221-1A1.283,1.283,0,0,1,11.994,36.247Z" transform="translate(4.673 4.672)" fill="#fff"/>
    <path id="Fill_39" data-name="Fill 39" d="M0,7.034H7.856V0H0Z" transform="translate(21.795 41.283)" fill="#ff5100"/>
    <path id="Fill_40" data-name="Fill 40" d="M9.314,33.8l.841-23.106-.49-.032s-.1-1.991-.1-2.794S9.537,6.548,8.959,6.1,7,5.649,5.33,6.869a29.94,29.94,0,0,0-4.624,5.3A2.1,2.1,0,0,1,0,12.906s.128-1.413,1.894-4.848S7.61.8,11.046.287s4.72-.225,5.363,0S18.078,1.6,19.491,1.6,21.29.64,21.579.576,23.794.544,24.437.544s.545.481.545.9V5.649c0,.739-.29.772-.771.772s-2.343-.031-2.729-.033-.307-.3-.307-.7c0,0,.227-.132-1.379-.132s-3.307.883-3.452,1.429c-.225.853-.631,3.645-.631,3.645h-.386l.379,23.17Z" transform="translate(13.229 17.155)" fill="#fff"/>
  </g>
</svg>
