<svg xmlns="http://www.w3.org/2000/svg" width="174.034" height="24.695" viewBox="0 0 174.034 24.695">
  <g id="angieslist" transform="translate(-2.608 -173.546)">
    <path id="Fill_14" data-name="Fill 14" d="M10.414,5.757c0-1.73-.912-2.575-2.76-2.575-1.92,0-3.534.965-3.534,3.629v6.057H0V.33H3.977V2.153h.05A6.553,6.553,0,0,1,9.15,0c2.13,0,5.381.82,5.381,4.518v8.35H10.414Z" transform="translate(54.603 178.779)" fill="#fefefe"/>
    <path id="Fill_16" data-name="Fill 16" d="M8.211,17.855c-3.37,0-7.29-.471-7.7-4.145h4.4c.235.942.91,1.569,3.439,1.569,1.875,0,3.792-.425,3.792-3.579V10.694a6.4,6.4,0,0,1-5.006,1.845,7.47,7.47,0,0,1-5.411-1.923A6.05,6.05,0,0,1,0,6.273,5.886,5.886,0,0,1,1.767,1.855,8.039,8.039,0,0,1,7.465,0c1.225,0,3.473.24,4.769,1.849h.05V.33H16.26V11.859A5.22,5.22,0,0,1,14.2,16.481C12.891,17.406,10.932,17.855,8.211,17.855ZM8.188,2.9a4.76,4.76,0,0,0-2.642.642,3.119,3.119,0,0,0-1.289,2.8c0,2.281,1.322,3.437,3.93,3.437,2.624,0,3.955-1.156,3.955-3.437S10.812,2.9,8.188,2.9Z" transform="translate(71.091 178.779)" fill="#fefefe"/>
    <path id="Fill_20" data-name="Fill 20" d="M4.539,9.128C4.727,10.2,5.476,10.9,7.605,10.9c1.872,0,2.972-.444,2.972-1.352,0-.7-.351-.982-2.343-1.266l-3.74-.515C1.874,7.417.377,6.6.377,4.212.377.819,3.816,0,7.228,0c5.782,0,7.137,1.893,7.419,4.233h-4.54C9.872,2.948,8.517,2.57,7.326,2.57c-1.081,0-2.694.1-2.694,1.337,0,.585.3.984,2.085,1.169l2.852.3c4.189.445,5.546,1.686,5.546,3.86,0,3.721-4.164,4.235-7.743,4.235C2.621,13.475.213,12.1,0,9.128Z" transform="translate(150.601 179.469)" fill="#fefefe"/>
    <path id="Fill_21" data-name="Fill 21" d="M8.282,13.475a9.852,9.852,0,0,1-6-1.6A6.054,6.054,0,0,1,0,6.739,6.058,6.058,0,0,1,2.281,1.6a9.849,9.849,0,0,1,6-1.6c5.265,0,8.048,2.581,8.048,7.463v.376H4.258v.047a2.782,2.782,0,0,0,.959,1.955A4.359,4.359,0,0,0,8.282,10.9,3.59,3.59,0,0,0,11.7,9.265h4.4C14.975,12.059,12.346,13.475,8.282,13.475Zm-.094-10.9c-3.2,0-3.929,2.42-3.929,2.786v.049h7.814v-.05C12.072,4.613,11.151,2.571,8.187,2.571Z" transform="translate(96.102 178.64)" fill="#fefefe"/>
    <path id="Fill_22" data-name="Fill 22" d="M4.538,9.128C4.726,10.2,5.475,10.9,7.606,10.9c1.872,0,2.97-.444,2.97-1.352,0-.7-.351-.982-2.34-1.266L4.493,7.767C1.872,7.417.374,6.6.374,4.212.374.819,3.813,0,7.231,0c5.777,0,7.135,1.893,7.412,4.233H10.107C9.874,2.948,8.516,2.57,7.322,2.57c-1.074,0-2.69.1-2.69,1.337,0,.585.3.984,2.082,1.169l2.853.3c4.189.445,5.547,1.687,5.547,3.86,0,3.721-4.163,4.235-7.745,4.235C2.62,13.475.213,12.1,0,9.128Z" transform="translate(113.468 178.641)" fill="#fefefe"/>
    <path id="Fill_23" data-name="Fill 23" d="M11.051,22.831v0l-3.341-8.8h-.7A7.015,7.015,0,0,1,7.012,0h17.2a7.015,7.015,0,0,1,0,14.03H14.36l-3.308,8.8ZM7.022,3.086a3.929,3.929,0,0,0,0,7.858h2.65l1.4,5.652,1.441-5.652H24.155a3.929,3.929,0,1,0,0-7.858Z" transform="translate(2.608 175.409)" fill="#fefefe"/>
    <path id="Fill_24" data-name="Fill 24" d="M2.6,0h4.12V4.881h3.32V7.642H6.717v5.849c0,.981.3,1.311,1.381,1.311.724,0,1.354-.05,2.009-.1v2.761c-.77.094-2.316.232-3.229.232C2.97,17.7,2.6,16.25,2.6,13.984V7.642H0V4.881H2.6Z" transform="translate(166.535 175.06)" fill="#fefefe"/>
    <path id="Fill_25" data-name="Fill 25" d="M4.12,16.986H0V4.447H4.12V16.985ZM4.12,2.9H0V0H4.12V2.9Z" transform="translate(144.2 175.491)" fill="#fefefe"/>
    <path id="Fill_26" data-name="Fill 26" d="M0,18.931H4.117V0H0Z" transform="translate(136.872 173.546)" fill="#fefefe"/>
    <path id="Fill_27" data-name="Fill 27" d="M4.88,16.678H0L7.334,0H12.8l7.333,16.676H15.251L13.9,13.24H6.235L4.881,16.677ZM10.064,3.6,7.45,10.207h5.232Z" transform="translate(34.088 174.99)" fill="#fefefe"/>
    <path id="Fill_18" data-name="Fill 18" d="M0,12.539H4.117V0H0Z" transform="translate(89.878 179.11)" fill="#fefefe"/>
  </g>
</svg>
