<svg xmlns="http://www.w3.org/2000/svg" width="142.484" height="46.718" viewBox="0 0 142.484 46.718">
  <g id="cust-google" transform="translate(-1.436 -15.787)">
    <path id="Fill_28" data-name="Fill 28" d="M35.03,16.5H18.26v4.934H30.2c-.583,6.918-6.339,9.868-11.772,9.868A12.965,12.965,0,0,1,5.407,18.166,12.989,12.989,0,0,1,18.44,4.948a12.8,12.8,0,0,1,8.889,3.566l3.454-3.577A17.561,17.561,0,0,0,18.263,0,18.422,18.422,0,0,0,0,18.078,18.363,18.363,0,0,0,18.525,36.246c9.7,0,16.806-6.647,16.806-16.476a14.8,14.8,0,0,0-.3-3.273Z" transform="translate(1.436 15.787)" fill="#1392d0"/>
    <path id="Fill_29" data-name="Fill 29" d="M11.791,23.3a11.7,11.7,0,0,1-8.539-3.506A11.8,11.8,0,0,1,0,11.554a11.493,11.493,0,0,1,3.3-8.11A11.673,11.673,0,0,1,11.711,0a12.156,12.156,0,0,1,7.948,2.951A11.211,11.211,0,0,1,23.4,11.689a11.53,11.53,0,0,1-3.412,8.33A11.624,11.624,0,0,1,11.791,23.3ZM11.779,4.576a6.716,6.716,0,0,0-6.667,7.05c0,4.048,2.859,7.1,6.651,7.1a6.745,6.745,0,0,0,6.55-7.068C18.313,7.058,14.947,4.576,11.779,4.576Z" transform="translate(38.951 28.713)" fill="#df6655"/>
    <path id="Fill_30" data-name="Fill 30" d="M11.791,23.3a11.7,11.7,0,0,1-8.539-3.506A11.8,11.8,0,0,1,0,11.554a11.493,11.493,0,0,1,3.3-8.11A11.673,11.673,0,0,1,11.711,0a12.156,12.156,0,0,1,7.948,2.951A11.211,11.211,0,0,1,23.4,11.689a11.53,11.53,0,0,1-3.412,8.33A11.624,11.624,0,0,1,11.791,23.3ZM11.779,4.576a6.716,6.716,0,0,0-6.667,7.05c0,4.048,2.859,7.1,6.651,7.1a6.745,6.745,0,0,0,6.55-7.068C18.313,7.058,14.947,4.576,11.779,4.576Z" transform="translate(64.277 28.713)" fill="#f3bd24"/>
    <path id="Fill_31" data-name="Fill 31" d="M11.378,33.779A10.949,10.949,0,0,1,4.6,31.608,12.635,12.635,0,0,1,.9,26.919l4.477-1.873a6.457,6.457,0,0,0,5.963,4.148c3.778,0,6.125-2.462,6.125-6.426v-2.3a7.925,7.925,0,0,1-2.439,1.983,8.534,8.534,0,0,1-3.951.848,11.009,11.009,0,0,1-7.552-3.2A11.682,11.682,0,0,1,0,11.639,11.992,11.992,0,0,1,3.244,3.511,10.84,10.84,0,0,1,11.184,0a8.232,8.232,0,0,1,6.281,2.673V.412h4.883V21.633A16.034,16.034,0,0,1,21.51,27,10.287,10.287,0,0,1,19.2,30.79,10.623,10.623,0,0,1,11.378,33.779Zm.259-29.213c-3.157,0-6.512,2.5-6.512,7.142,0,4.556,3.32,7.014,6.444,7.014,3.05,0,6.291-2.474,6.291-7.058C17.86,7.221,14.7,4.566,11.637,4.566Z" transform="translate(89.787 28.726)" fill="#1392d0"/>
    <path id="Fill_32" data-name="Fill 32" d="M11.434,23.324A11.469,11.469,0,0,1,3.5,20.231a11.494,11.494,0,0,1-3.5-8.6A11.965,11.965,0,0,1,3.218,3.217,10.552,10.552,0,0,1,10.866,0a9.96,9.96,0,0,1,6.026,2.019,11.323,11.323,0,0,1,3.663,4.808l.811,1.9L5.744,15.208a5.96,5.96,0,0,0,5.714,3.53,6.479,6.479,0,0,0,5.708-3.206l4.028,2.677A11.744,11.744,0,0,1,11.434,23.324ZM11.07,4.48A6.262,6.262,0,0,0,6.5,6.719a5.913,5.913,0,0,0-1.555,4.61L15.381,6.968A4.633,4.633,0,0,0,11.07,4.48Z" transform="translate(122.555 28.698)" fill="#df6655"/>
    <path id="Fill_33" data-name="Fill 33" d="M0,34.337H4.785V0H0Z" transform="translate(115.396 16.992)" fill="#00ad6c"/>
  </g>
</svg>
