<svg id="Group_94" data-name="Group 94" xmlns="http://www.w3.org/2000/svg" width="50" height="50" viewBox="0 0 50 50">
  <path id="Path_81" data-name="Path 81" d="M251.25,263.75h-2.038a1.012,1.012,0,0,0-1.011,1.011v1.563a1.012,1.012,0,0,0,1.011,1.011h2.038a1.012,1.012,0,0,0,1.011-1.011v-1.563a1.012,1.012,0,0,0-1.011-1.011Zm.276,2.575a.277.277,0,0,1-.276.276h-2.038a.277.277,0,0,1-.276-.276v-1.563a.277.277,0,0,1,.276-.276h2.038a.277.277,0,0,1,.276.276Z" transform="translate(-216.253 -228.949)" fill="#373737"/>
  <path id="Path_82" data-name="Path 82" d="M50,47.432a1.449,1.449,0,0,0-.163-.691L42.4,31.764a1.217,1.217,0,0,0-1.063-.714H8.667a1.2,1.2,0,0,0-1.063.714L.163,46.741A1.582,1.582,0,0,0,0,47.432a8.335,8.335,0,0,0,4.29,7.513v24.7a1.329,1.329,0,0,0,1.227,1.4H44.473a1.329,1.329,0,0,0,1.227-1.4V55.12a.708.708,0,0,0,0-.153A8.359,8.359,0,0,0,50,47.432ZM9.37,33.871H40.623l5.813,11.713H3.567ZM35.587,48.378a4.941,4.941,0,0,1-4.638,4.439,4.941,4.941,0,0,1-4.638-4.439Zm-11.883,0a4.946,4.946,0,0,1-4.643,4.453,4.946,4.946,0,0,1-4.643-4.453Zm-21.17,0H11.82a4.946,4.946,0,0,1-4.643,4.453,4.946,4.946,0,0,1-4.643-4.453ZM20.6,78.24h-7.05V63.088a1.887,1.887,0,0,1,1.747-2H18.86a1.887,1.887,0,0,1,1.747,2V78.24Zm22.667,0H23.05V63.088c0-2.655-1.882-4.806-4.2-4.81H15.283c-2.318,0-4.2,2.155-4.2,4.81V78.252H6.75V55.636h.43a6.967,6.967,0,0,0,5.947-3.627,6.97,6.97,0,0,0,5.947,3.627,6.97,6.97,0,0,0,5.947-3.627,6.952,6.952,0,0,0,5.937,3.628,6.952,6.952,0,0,0,5.937-3.628,6.967,6.967,0,0,0,5.947,3.627h.42V78.244Zm-.42-25.4A4.939,4.939,0,0,1,38.2,48.39H47.49a4.962,4.962,0,0,1-4.663,4.448Z" transform="translate(0 -31.05)" fill="#373737"/>
</svg>
