<svg xmlns="http://www.w3.org/2000/svg" width="193.227" height="29.395" viewBox="0 0 193.227 29.395">
  <g id="homeadvisor" transform="translate(-1.12 -239.959)">
    <path id="Fill_45" data-name="Fill 45" d="M18.9,24.783l-7-6.721H2.87A2.87,2.87,0,0,1,0,15.192V7.981L7.981,0,17.992,10.012h6.931v5.872a2.179,2.179,0,0,1-2.179,2.178h-3.7Z" transform="translate(7.211 244.572)" fill="#fefefe"/>
    <path id="Fill_46" data-name="Fill 46" d="M3.728,12.418H0L12.418,0H25.1L37.451,12.353H24.836L14.314,1.832Z" transform="translate(1.12 239.959)" fill="#f6901f"/>
    <path id="Fill_47" data-name="Fill 47" d="M0,0H4.933V7.325h6.983V0h4.673V19.645H11.916V11.154H4.933v8.491H0Z" transform="translate(41.711 243.193)" fill="#f69420"/>
    <path id="Fill_48" data-name="Fill 48" d="M8.216,15.52A8.58,8.58,0,0,1,2.4,13.409,7.413,7.413,0,0,1,0,7.76,7.413,7.413,0,0,1,2.4,2.111,8.58,8.58,0,0,1,8.216,0a8.58,8.58,0,0,1,5.82,2.111,7.413,7.413,0,0,1,2.4,5.649,7.413,7.413,0,0,1-2.4,5.649A8.58,8.58,0,0,1,8.216,15.52Zm0-11.5A3.465,3.465,0,0,0,4.564,7.76,3.466,3.466,0,0,0,8.216,11.5,3.465,3.465,0,0,0,11.867,7.76,3.465,3.465,0,0,0,8.216,4.018Z" transform="translate(59.338 247.651)" fill="#f69420"/>
    <path id="Fill_49" data-name="Fill 49" d="M0,.355H4.152V2.312H4.21A4.524,4.524,0,0,1,8.305,0,4.379,4.379,0,0,1,12.63,2.579,4.536,4.536,0,0,1,17.071,0c3.806,0,4.96,2.756,4.96,6.255v8.51H17.7V6.375c0-1.335-.49-2.462-1.9-2.462-1.989,0-2.624,1.453-2.624,3.232v7.62H8.853V7.145c0-1.067.058-3.232-1.932-3.232-2.25,0-2.595,1.809-2.595,3.677v7.175H0Z" transform="translate(76.333 248.073)" fill="#f69420"/>
    <path id="Fill_50" data-name="Fill 50" d="M7.993,15.1a8.346,8.346,0,0,1-5.661-2.054A7.213,7.213,0,0,1,0,7.549a7.212,7.212,0,0,1,2.332-5.5A8.346,8.346,0,0,1,7.993,0a6.378,6.378,0,0,1,4.93,2.054,8.1,8.1,0,0,1,1.821,5.5V8.941H4.441a3.308,3.308,0,0,0,3.345,2.784,3.789,3.789,0,0,0,3.168-1.747l3.109,2.28A7.841,7.841,0,0,1,7.993,15.1ZM7.579,3.2A2.95,2.95,0,0,0,4.441,5.921H10.3A2.643,2.643,0,0,0,9.55,4,2.728,2.728,0,0,0,7.579,3.2Z" transform="translate(99.742 248.072)" fill="#f69420"/>
    <path id="Fill_51" data-name="Fill 51" d="M1.617,18.9H0L7.243,0H8.837l6.985,18.9H14.088l-1.8-5.018H3.493L1.617,18.9ZM7.97,1.922,4.1,12.277H11.72Z" transform="translate(115.096 243.686)" fill="#fefefe"/>
    <path id="Fill_52" data-name="Fill 52" d="M6.173,19.51a6.678,6.678,0,0,1-2.49-.458A5.7,5.7,0,0,1,1.727,17.77a5.962,5.962,0,0,1-1.27-1.956,6.94,6.94,0,0,1,0-4.955A5.964,5.964,0,0,1,1.727,8.9,5.7,5.7,0,0,1,3.683,7.621a6.662,6.662,0,0,1,2.49-.458A6.78,6.78,0,0,1,7.519,7.3a5.893,5.893,0,0,1,1.309.432,5.388,5.388,0,0,1,1.156.737,3.992,3.992,0,0,1,.889,1.054h.051V0h1.524V19.2H10.924V17.147h-.051A3.976,3.976,0,0,1,9.984,18.2a5.32,5.32,0,0,1-1.156.737,5.8,5.8,0,0,1-1.309.432A6.716,6.716,0,0,1,6.173,19.51Zm0-10.976a4.739,4.739,0,0,0-1.931.382A4.5,4.5,0,0,0,2.769,9.945a4.387,4.387,0,0,0-.927,1.525,5.627,5.627,0,0,0,0,3.733,4.389,4.389,0,0,0,.927,1.525,4.5,4.5,0,0,0,1.473,1.029,4.753,4.753,0,0,0,1.931.381A4.871,4.871,0,0,0,8.1,17.757a5.036,5.036,0,0,0,1.55-1.029A4.789,4.789,0,0,0,10.695,15.2a4.756,4.756,0,0,0,0-3.733A4.787,4.787,0,0,0,9.653,9.945,5.036,5.036,0,0,0,8.1,8.916,4.856,4.856,0,0,0,6.173,8.535Z" transform="translate(130.63 243.394)" fill="#fefefe"/>
    <path id="Fill_53" data-name="Fill 53" d="M0,0H1.989l4.5,11.612L10.881,0h1.784L7.342,13.514H5.528Z" transform="translate(144.501 249.07)" fill="#fefefe"/>
    <path id="Fill_54" data-name="Fill 54" d="M0,1.5A1.455,1.455,0,0,1,.435.435,1.459,1.459,0,0,1,1.506,0a1.459,1.459,0,0,1,1.07.435A1.455,1.455,0,0,1,3.011,1.5a1.452,1.452,0,0,1-.435,1.07,1.455,1.455,0,0,1-1.07.435A1.456,1.456,0,0,1,.435,2.575,1.452,1.452,0,0,1,0,1.5" transform="translate(157.977 243.14)" fill="#fefefe"/>
    <path id="Fill_55" data-name="Fill 55" d="M0,13.514H2.009V0H0Z" transform="translate(158.449 249.069)" fill="#fefefe"/>
    <path id="Fill_56" data-name="Fill 56" d="M1.543,10.364a3.755,3.755,0,0,0,1.63,1.645,4.809,4.809,0,0,0,2.271.568A3.669,3.669,0,0,0,6.55,12.4a3.355,3.355,0,0,0,.99-.5,2.675,2.675,0,0,0,.713-.772A1.926,1.926,0,0,0,8.53,10.1a1.662,1.662,0,0,0-.6-1.4,4.435,4.435,0,0,0-1.47-.728,17.476,17.476,0,0,0-1.921-.451A8.186,8.186,0,0,1,2.62,6.943,4.129,4.129,0,0,1,1.15,5.851a2.957,2.957,0,0,1-.6-1.979A3.47,3.47,0,0,1,.96,2.154,3.76,3.76,0,0,1,2.023.946,4.6,4.6,0,0,1,3.494.233,6.016,6.016,0,0,1,5.153,0,6.292,6.292,0,0,1,8.021.611,4.247,4.247,0,0,1,9.9,2.533l-1.572.932A3.7,3.7,0,0,0,7.089,2.052a3.515,3.515,0,0,0-1.936-.48,3.543,3.543,0,0,0-.975.146,3.4,3.4,0,0,0-.917.408,2.344,2.344,0,0,0-.684.669,1.617,1.617,0,0,0-.277.931,1.55,1.55,0,0,0,.6,1.34,4.581,4.581,0,0,0,1.47.684,17.9,17.9,0,0,0,1.921.422A7.771,7.771,0,0,1,8.21,6.74,3.939,3.939,0,0,1,9.68,7.875a3.3,3.3,0,0,1,.6,2.111,3.96,3.96,0,0,1-.393,1.819,3.746,3.746,0,0,1-1.078,1.3,4.78,4.78,0,0,1-1.557.786,6.339,6.339,0,0,1-1.834.263,7.468,7.468,0,0,1-3.188-.67A4.841,4.841,0,0,1,0,11.412Z" transform="translate(161.749 248.754)" fill="#fefefe"/>
    <path id="Fill_57" data-name="Fill 57" d="M6.485,13.834a6.615,6.615,0,0,1-2.615-.513,5.951,5.951,0,0,1-2.056-1.437A6.7,6.7,0,0,1,.48,9.692,7.815,7.815,0,0,1,0,6.917,7.817,7.817,0,0,1,.48,4.142,6.7,6.7,0,0,1,1.814,1.95,5.951,5.951,0,0,1,3.87.513,6.615,6.615,0,0,1,6.485,0a6.524,6.524,0,0,1,2.6.513A6.124,6.124,0,0,1,11.143,1.95,6.6,6.6,0,0,1,12.49,4.142a7.817,7.817,0,0,1,.481,2.776,7.814,7.814,0,0,1-.481,2.775,6.6,6.6,0,0,1-1.347,2.191,6.124,6.124,0,0,1-2.056,1.437A6.524,6.524,0,0,1,6.485,13.834Zm0-12.3A4.66,4.66,0,0,0,2.909,3.117a5,5,0,0,0-.975,1.708A6.5,6.5,0,0,0,1.6,6.917a6.5,6.5,0,0,0,.333,2.092,5.021,5.021,0,0,0,.975,1.708A4.668,4.668,0,0,0,6.485,12.3a4.665,4.665,0,0,0,3.576-1.58,5.009,5.009,0,0,0,.975-1.708,6.5,6.5,0,0,0,.333-2.092,6.5,6.5,0,0,0-.333-2.093,4.992,4.992,0,0,0-.975-1.708A4.657,4.657,0,0,0,6.485,1.537Z" transform="translate(172.763 249.07)" fill="#fefefe"/>
    <path id="Fill_58" data-name="Fill 58" d="M.151,4.089c0-.249-.011-.552-.03-.907S.085,2.467.075,2.1.05,1.4.03,1.08,0,.519,0,.346H1.812q.03.75.045,1.439a4.345,4.345,0,0,0,.075.893A6.02,6.02,0,0,1,3.714.749,4.573,4.573,0,0,1,6.372,0,3.153,3.153,0,0,1,6.9.044c.171.028.347.063.528.1l-.211,1.7a2.311,2.311,0,0,0-.694-.115,5.263,5.263,0,0,0-2.039.36,3.821,3.821,0,0,0-1.419.993,4.116,4.116,0,0,0-.831,1.483,5.968,5.968,0,0,0-.271,1.828v7.256H.151Z" transform="translate(186.919 248.936)" fill="#fefefe"/>
  </g>
</svg>
