<svg xmlns="http://www.w3.org/2000/svg" xmlns:xlink="http://www.w3.org/1999/xlink" width="471" height="281" viewBox="0 0 471 281">
  <defs>
    <clipPath id="clip-path">
      <path id="Clip_19" data-name="Clip 19" d="M0,281H471V0H0Z" fill="none"/>
    </clipPath>
  </defs>
  <g id="Mask_Group_1" data-name="Mask Group 1" clip-path="url(#clip-path)">
    <path id="Fill_18" data-name="Fill 18" d="M0,12.539H4.117V0H0Z" transform="translate(89.878 179.11)" fill="#fefefe"/>
    <path id="Fill_20" data-name="Fill 20" d="M4.539,9.128C4.727,10.2,5.476,10.9,7.605,10.9c1.872,0,2.972-.444,2.972-1.352,0-.7-.351-.982-2.343-1.266l-3.74-.515C1.874,7.417.377,6.6.377,4.212.377.819,3.816,0,7.228,0c5.782,0,7.137,1.893,7.419,4.233h-4.54C9.872,2.948,8.517,2.57,7.326,2.57c-1.081,0-2.694.1-2.694,1.337,0,.585.3.984,2.085,1.169l2.852.3c4.189.445,5.546,1.686,5.546,3.86,0,3.721-4.164,4.235-7.743,4.235C2.621,13.475.213,12.1,0,9.128Z" transform="translate(150.601 179.469)" fill="#fefefe"/>
    <path id="Fill_21" data-name="Fill 21" d="M8.282,13.475a9.852,9.852,0,0,1-6-1.6A6.054,6.054,0,0,1,0,6.739,6.058,6.058,0,0,1,2.281,1.6a9.849,9.849,0,0,1,6-1.6c5.265,0,8.048,2.581,8.048,7.463v.376H4.258v.047a2.782,2.782,0,0,0,.959,1.955A4.359,4.359,0,0,0,8.282,10.9,3.59,3.59,0,0,0,11.7,9.265h4.4C14.975,12.059,12.346,13.475,8.282,13.475Zm-.094-10.9c-3.2,0-3.929,2.42-3.929,2.786v.049h7.814v-.05C12.072,4.613,11.151,2.571,8.187,2.571Z" transform="translate(96.102 178.64)" fill="#fefefe"/>
    <path id="Fill_22" data-name="Fill 22" d="M4.538,9.128C4.726,10.2,5.475,10.9,7.606,10.9c1.872,0,2.97-.444,2.97-1.352,0-.7-.351-.982-2.34-1.266L4.493,7.767C1.872,7.417.374,6.6.374,4.212.374.819,3.813,0,7.231,0c5.777,0,7.135,1.893,7.412,4.233H10.107C9.874,2.948,8.516,2.57,7.322,2.57c-1.074,0-2.69.1-2.69,1.337,0,.585.3.984,2.082,1.169l2.853.3c4.189.445,5.547,1.687,5.547,3.86,0,3.721-4.163,4.235-7.745,4.235C2.62,13.475.213,12.1,0,9.128Z" transform="translate(113.468 178.641)" fill="#fefefe"/>
    <path id="Fill_23" data-name="Fill 23" d="M11.051,22.831v0l-3.341-8.8h-.7A7.015,7.015,0,0,1,7.012,0h17.2a7.015,7.015,0,0,1,0,14.03H14.36l-3.308,8.8ZM7.022,3.086a3.929,3.929,0,0,0,0,7.858h2.65l1.4,5.652,1.441-5.652H24.155a3.929,3.929,0,1,0,0-7.858Z" transform="translate(2.608 175.409)" fill="#fefefe"/>
    <path id="Fill_24" data-name="Fill 24" d="M2.6,0h4.12V4.881h3.32V7.642H6.717v5.849c0,.981.3,1.311,1.381,1.311.724,0,1.354-.05,2.009-.1v2.761c-.77.094-2.316.232-3.229.232C2.97,17.7,2.6,16.25,2.6,13.984V7.642H0V4.881H2.6Z" transform="translate(166.535 175.06)" fill="#fefefe"/>
    <path id="Fill_25" data-name="Fill 25" d="M4.12,16.986H0V4.447H4.12V16.985ZM4.12,2.9H0V0H4.12V2.9Z" transform="translate(144.2 175.491)" fill="#fefefe"/>
    <path id="Fill_26" data-name="Fill 26" d="M0,18.931H4.117V0H0Z" transform="translate(136.872 173.546)" fill="#fefefe"/>
    <path id="Fill_27" data-name="Fill 27" d="M4.88,16.678H0L7.334,0H12.8l7.333,16.676H15.251L13.9,13.24H6.235L4.881,16.677ZM10.064,3.6,7.45,10.207h5.232Z" transform="translate(34.088 174.99)" fill="#fefefe"/>
    <g id="cust-google">
      <path id="Fill_28" data-name="Fill 28" d="M35.03,16.5H18.26v4.934H30.2c-.583,6.918-6.339,9.868-11.772,9.868A12.965,12.965,0,0,1,5.407,18.166,12.989,12.989,0,0,1,18.44,4.948a12.8,12.8,0,0,1,8.889,3.566l3.454-3.577A17.561,17.561,0,0,0,18.263,0,18.422,18.422,0,0,0,0,18.078,18.363,18.363,0,0,0,18.525,36.246c9.7,0,16.806-6.647,16.806-16.476a14.8,14.8,0,0,0-.3-3.273Z" transform="translate(1.436 15.787)" fill="#1392d0"/>
      <path id="Fill_29" data-name="Fill 29" d="M11.791,23.3a11.7,11.7,0,0,1-8.539-3.506A11.8,11.8,0,0,1,0,11.554a11.493,11.493,0,0,1,3.3-8.11A11.673,11.673,0,0,1,11.711,0a12.156,12.156,0,0,1,7.948,2.951A11.211,11.211,0,0,1,23.4,11.689a11.53,11.53,0,0,1-3.412,8.33A11.624,11.624,0,0,1,11.791,23.3ZM11.779,4.576a6.716,6.716,0,0,0-6.667,7.05c0,4.048,2.859,7.1,6.651,7.1a6.745,6.745,0,0,0,6.55-7.068C18.313,7.058,14.947,4.576,11.779,4.576Z" transform="translate(38.951 28.713)" fill="#df6655"/>
      <path id="Fill_30" data-name="Fill 30" d="M11.791,23.3a11.7,11.7,0,0,1-8.539-3.506A11.8,11.8,0,0,1,0,11.554a11.493,11.493,0,0,1,3.3-8.11A11.673,11.673,0,0,1,11.711,0a12.156,12.156,0,0,1,7.948,2.951A11.211,11.211,0,0,1,23.4,11.689a11.53,11.53,0,0,1-3.412,8.33A11.624,11.624,0,0,1,11.791,23.3ZM11.779,4.576a6.716,6.716,0,0,0-6.667,7.05c0,4.048,2.859,7.1,6.651,7.1a6.745,6.745,0,0,0,6.55-7.068C18.313,7.058,14.947,4.576,11.779,4.576Z" transform="translate(64.277 28.713)" fill="#f3bd24"/>
      <path id="Fill_31" data-name="Fill 31" d="M11.378,33.779A10.949,10.949,0,0,1,4.6,31.608,12.635,12.635,0,0,1,.9,26.919l4.477-1.873a6.457,6.457,0,0,0,5.963,4.148c3.778,0,6.125-2.462,6.125-6.426v-2.3a7.925,7.925,0,0,1-2.439,1.983,8.534,8.534,0,0,1-3.951.848,11.009,11.009,0,0,1-7.552-3.2A11.682,11.682,0,0,1,0,11.639,11.992,11.992,0,0,1,3.244,3.511,10.84,10.84,0,0,1,11.184,0a8.232,8.232,0,0,1,6.281,2.673V.412h4.883V21.633A16.034,16.034,0,0,1,21.51,27,10.287,10.287,0,0,1,19.2,30.79,10.623,10.623,0,0,1,11.378,33.779Zm.259-29.213c-3.157,0-6.512,2.5-6.512,7.142,0,4.556,3.32,7.014,6.444,7.014,3.05,0,6.291-2.474,6.291-7.058C17.86,7.221,14.7,4.566,11.637,4.566Z" transform="translate(89.787 28.726)" fill="#1392d0"/>
      <path id="Fill_32" data-name="Fill 32" d="M11.434,23.324A11.469,11.469,0,0,1,3.5,20.231a11.494,11.494,0,0,1-3.5-8.6A11.965,11.965,0,0,1,3.218,3.217,10.552,10.552,0,0,1,10.866,0a9.96,9.96,0,0,1,6.026,2.019,11.323,11.323,0,0,1,3.663,4.808l.811,1.9L5.744,15.208a5.96,5.96,0,0,0,5.714,3.53,6.479,6.479,0,0,0,5.708-3.206l4.028,2.677A11.744,11.744,0,0,1,11.434,23.324ZM11.07,4.48A6.262,6.262,0,0,0,6.5,6.719a5.913,5.913,0,0,0-1.555,4.61L15.381,6.968A4.633,4.633,0,0,0,11.07,4.48Z" transform="translate(122.555 28.698)" fill="#df6655"/>
      <path id="Fill_33" data-name="Fill 33" d="M0,34.337H4.785V0H0Z" transform="translate(115.396 16.992)" fill="#00ad6c"/>
    </g>
    <path id="Fill_34" data-name="Fill 34" d="M102.745,35.49a5.6,5.6,0,0,0-3.323-7.733l-.182-.06a5.6,5.6,0,0,0,3.776-7.665,18.407,18.407,0,0,0-4.752-6.538,5.619,5.619,0,0,0-3.7-1.4H94.54a5.52,5.52,0,0,0-4.725,2.628V5.6A5.583,5.583,0,0,0,84.224,0h-.032a26.084,26.084,0,0,0-5.4.877,27.593,27.593,0,0,0-4.749,1.75,5.6,5.6,0,0,0-2.433,7.848l4.563,7.9a5.6,5.6,0,0,0-7.932,3.158q-.084.252-.162.5A10.034,10.034,0,0,0,65.4,20.2a11.08,11.08,0,0,0-4.725-1.06,10.643,10.643,0,0,0-3.6.618,6.028,6.028,0,0,0-6.587.645V19.3a6.021,6.021,0,0,0-12.041,0v3.324a11.06,11.06,0,0,0-8.023-3.352,11.353,11.353,0,0,0-7.059,2.55,6.031,6.031,0,0,0-3.138-2.259,6.077,6.077,0,0,0-7.6,4.01l-.257.827-.827-1.695a6.141,6.141,0,0,0-5.45-3.429,6.139,6.139,0,0,0-2.679.631,6.08,6.08,0,0,0-2.8,8.13L6.382,39.847a5.792,5.792,0,0,0-3.506,3.9,5.853,5.853,0,0,0,.887,5.113,6.783,6.783,0,0,0,5.632,2.6c.114,0,.226,0,.337,0,4.387,0,7.6-2.169,8.806-5.951.5-1.556,1.075-3.387,1.666-5.279.108.241.222.478.343.707a10.478,10.478,0,0,0,9.77,5.585c4.147,0,7.057-1.4,8.857-3.222A6.013,6.013,0,0,0,48.25,45.14v1.1a6.021,6.021,0,0,0,12.04.158s.1,0,.267,0a10.723,10.723,0,0,0,7.564-3.041,10.167,10.167,0,0,0,1.468-1.909,5.168,5.168,0,0,0,4.54.213,5.623,5.623,0,0,0,1.233,1.16,18.8,18.8,0,0,0,7.477,3.024,5.6,5.6,0,0,0,6.523-5.325l.007-.193.1.164a5.6,5.6,0,0,0,8.312,1.35,18.8,18.8,0,0,0,4.962-6.358" transform="translate(1.296 80.255)" fill="#fefefe"/>
    <path id="Fill_35" data-name="Fill 35" d="M4.251,23.277a2.126,2.126,0,0,1-4.251,0V2.125a2.126,2.126,0,0,1,4.251,0Z" transform="translate(43.643 97.434)"/>
    <path id="Fill_36" data-name="Fill 36" d="M7.56,19.464c-2.969,0-5.1-1.18-6.323-3.507A13,13,0,0,1,0,10.017c0-3.75.994-6.524,2.955-8.245a7.29,7.29,0,0,1,9.236-.24c1.9,1.506,2.941,3.979,3.106,7.353,0,.015,0,.03,0,.044s0,.042,0,.064V9a2.271,2.271,0,0,1-2.067,2.366,1.537,1.537,0,0,1-.158.009l-7.636-.009c-.657.025-.913.226-.913.716a4.086,4.086,0,0,0,.587,1.94,3.186,3.186,0,0,0,2.905,1.489,5.4,5.4,0,0,0,3.35-1.529,4.454,4.454,0,0,1,1.131-.751,1.605,1.605,0,0,1,.515-.087,1.945,1.945,0,0,1,1.758,2.047C14.775,16.04,13.491,19.464,7.56,19.464ZM7.884,4.149A3.268,3.268,0,0,0,4.518,7.568a.335.335,0,0,0,.07.249.156.156,0,0,0,.115.051h6.359c.089,0,.178-.086.178-.251A3.266,3.266,0,0,0,7.884,4.149Z" transform="translate(24.052 103.426)"/>
    <path id="Fill_37" data-name="Fill 37" d="M6.863,16.749.222,3.142A2.184,2.184,0,0,1,4.147,1.227L9.288,11.762,12.452,1.538A2.184,2.184,0,0,1,16.624,2.83S13.068,14.46,10.93,21.143c-.707,2.21-2.56,3.306-5.337,3.239C2.846,24.315,2.42,22.7,2.725,21.627A2.129,2.129,0,0,1,5,20.1c2.481.012,2.8-1.491,1.863-3.354" transform="translate(5.193 103.444)"/>
    <path id="Fill_38" data-name="Fill 38" d="M1.191,2.364A1.171,1.171,0,0,1,0,1.188,1.177,1.177,0,0,1,1.191,0,1.172,1.172,0,0,1,2.384,1.176,1.178,1.178,0,0,1,1.191,2.364Zm0-2.193a1,1,0,0,0-1,1.017.992.992,0,0,0,1,1,1,1,0,0,0,1-1.016A.993.993,0,0,0,1.191.171ZM.94,1.877H.749V.5h.5c.329,0,.482.125.482.394a.355.355,0,0,1-.363.371l.394.6-.206,0-.374-.589H.94v.589Zm0-1.2v.438h.236c.2,0,.369-.017.369-.226,0-.187-.157-.212-.31-.212Z" transform="translate(72.179 116.207)" fill="#221e1f"/>
    <path id="Fill_39" data-name="Fill 39" d="M2.126,25.4A2.128,2.128,0,0,1,0,23.276V2.125a2.124,2.124,0,0,1,4.189-.5A11.186,11.186,0,0,1,5.271.917,6.517,6.517,0,0,1,8.534.073a7.153,7.153,0,0,1,3.052.683c3.426,1.626,3.866,5.282,3.866,8.285,0,.063,0,.133.006.21V9.26c.045,1.617.166,5.912-2.275,8.422a6.61,6.61,0,0,1-4.948,1.857c-.093,0-.188,0-.283,0a5.415,5.415,0,0,1-3.7-1.811v5.551A2.128,2.128,0,0,1,2.126,25.4ZM8.187,4.424c-3.055,0-3.055,3.054-3.055,4.7v1.55a8.261,8.261,0,0,0,.382,2.971A2.62,2.62,0,0,0,8.187,15.35c3.055,0,3.055-3.054,3.055-4.7V9.1a8.26,8.26,0,0,0-.382-2.971A2.62,2.62,0,0,0,8.187,4.424Z" transform="translate(53.44 103.221)"/>
    <path id="Fill_40" data-name="Fill 40" d="M3.124.173l7.422,3.62a1.7,1.7,0,0,1-.334,3.18l-8.012,2A1.706,1.706,0,0,1,.1,7.507,14.659,14.659,0,0,1,.765,1.156,1.7,1.7,0,0,1,3.124.173" transform="translate(72.467 101.878)" fill="#d8272d"/>
    <path id="Fill_41" data-name="Fill 41" d="M.437,6.7,5.961.567a1.7,1.7,0,0,1,2.965,1.2l-.288,8.254a1.7,1.7,0,0,1-1.985,1.62A14.8,14.8,0,0,1,.737,9.245,1.7,1.7,0,0,1,.437,6.7" transform="translate(78.126 110.627)" fill="#d8272d"/>
    <path id="Fill_42" data-name="Fill 42" d="M2.234.088l7.852,2.553A1.7,1.7,0,0,1,11.1,4.991a14.776,14.776,0,0,1-3.926,5.032,1.7,1.7,0,0,1-2.529-.411l-4.377-7A1.7,1.7,0,0,1,2.234.088" transform="translate(89.427 109.077)" fill="#d8272d"/>
    <path id="Fill_43" data-name="Fill 43" d="M10.115,7.908,2.178,10.183A1.7,1.7,0,0,1,.3,7.6L4.916.751A1.7,1.7,0,0,1,7.45.423,14.639,14.639,0,0,1,11.2,5.589a1.7,1.7,0,0,1-1.09,2.319" transform="translate(89.532 96.247)" fill="#d8272d"/>
    <path id="Fill_44" data-name="Fill 44" d="M5.046.743a23.783,23.783,0,0,0-4.08,1.5A1.7,1.7,0,0,0,.229,4.632L7.987,18.069a1.7,1.7,0,0,0,3.175-.85V1.7A1.7,1.7,0,0,0,9.331.005,23.72,23.72,0,0,0,5.046.743" transform="translate(76.054 84.151)" fill="#d8272d"/>
    <path id="Fill_45" data-name="Fill 45" d="M18.9,24.783l-7-6.721H2.87A2.87,2.87,0,0,1,0,15.192V7.981L7.981,0,17.992,10.012h6.931v5.872a2.179,2.179,0,0,1-2.179,2.178h-3.7Z" transform="translate(7.211 244.572)" fill="#fefefe"/>
    <path id="Fill_46" data-name="Fill 46" d="M3.728,12.418H0L12.418,0H25.1L37.451,12.353H24.836L14.314,1.832Z" transform="translate(1.12 239.959)" fill="#f6901f"/>
    <path id="Fill_47" data-name="Fill 47" d="M0,0H4.933V7.325h6.983V0h4.673V19.645H11.916V11.154H4.933v8.491H0Z" transform="translate(41.711 243.193)" fill="#f69420"/>
    <path id="Fill_48" data-name="Fill 48" d="M8.216,15.52A8.58,8.58,0,0,1,2.4,13.409,7.413,7.413,0,0,1,0,7.76,7.413,7.413,0,0,1,2.4,2.111,8.58,8.58,0,0,1,8.216,0a8.58,8.58,0,0,1,5.82,2.111,7.413,7.413,0,0,1,2.4,5.649,7.413,7.413,0,0,1-2.4,5.649A8.58,8.58,0,0,1,8.216,15.52Zm0-11.5A3.465,3.465,0,0,0,4.564,7.76,3.466,3.466,0,0,0,8.216,11.5,3.465,3.465,0,0,0,11.867,7.76,3.465,3.465,0,0,0,8.216,4.018Z" transform="translate(59.338 247.651)" fill="#f69420"/>
    <path id="Fill_49" data-name="Fill 49" d="M0,.355H4.152V2.312H4.21A4.524,4.524,0,0,1,8.305,0,4.379,4.379,0,0,1,12.63,2.579,4.536,4.536,0,0,1,17.071,0c3.806,0,4.96,2.756,4.96,6.255v8.51H17.7V6.375c0-1.335-.49-2.462-1.9-2.462-1.989,0-2.624,1.453-2.624,3.232v7.62H8.853V7.145c0-1.067.058-3.232-1.932-3.232-2.25,0-2.595,1.809-2.595,3.677v7.175H0Z" transform="translate(76.333 248.073)" fill="#f69420"/>
    <path id="Fill_50" data-name="Fill 50" d="M7.993,15.1a8.346,8.346,0,0,1-5.661-2.054A7.213,7.213,0,0,1,0,7.549a7.212,7.212,0,0,1,2.332-5.5A8.346,8.346,0,0,1,7.993,0a6.378,6.378,0,0,1,4.93,2.054,8.1,8.1,0,0,1,1.821,5.5V8.941H4.441a3.308,3.308,0,0,0,3.345,2.784,3.789,3.789,0,0,0,3.168-1.747l3.109,2.28A7.841,7.841,0,0,1,7.993,15.1ZM7.579,3.2A2.95,2.95,0,0,0,4.441,5.921H10.3A2.643,2.643,0,0,0,9.55,4,2.728,2.728,0,0,0,7.579,3.2Z" transform="translate(99.742 248.072)" fill="#f69420"/>
    <path id="Fill_51" data-name="Fill 51" d="M1.617,18.9H0L7.243,0H8.837l6.985,18.9H14.088l-1.8-5.018H3.493L1.617,18.9ZM7.97,1.922,4.1,12.277H11.72Z" transform="translate(115.096 243.686)" fill="#fefefe"/>
    <path id="Fill_52" data-name="Fill 52" d="M6.173,19.51a6.678,6.678,0,0,1-2.49-.458A5.7,5.7,0,0,1,1.727,17.77a5.962,5.962,0,0,1-1.27-1.956,6.94,6.94,0,0,1,0-4.955A5.964,5.964,0,0,1,1.727,8.9,5.7,5.7,0,0,1,3.683,7.621a6.662,6.662,0,0,1,2.49-.458A6.78,6.78,0,0,1,7.519,7.3a5.893,5.893,0,0,1,1.309.432,5.388,5.388,0,0,1,1.156.737,3.992,3.992,0,0,1,.889,1.054h.051V0h1.524V19.2H10.924V17.147h-.051A3.976,3.976,0,0,1,9.984,18.2a5.32,5.32,0,0,1-1.156.737,5.8,5.8,0,0,1-1.309.432A6.716,6.716,0,0,1,6.173,19.51Zm0-10.976a4.739,4.739,0,0,0-1.931.382A4.5,4.5,0,0,0,2.769,9.945a4.387,4.387,0,0,0-.927,1.525,5.627,5.627,0,0,0,0,3.733,4.389,4.389,0,0,0,.927,1.525,4.5,4.5,0,0,0,1.473,1.029,4.753,4.753,0,0,0,1.931.381A4.871,4.871,0,0,0,8.1,17.757a5.036,5.036,0,0,0,1.55-1.029A4.789,4.789,0,0,0,10.695,15.2a4.756,4.756,0,0,0,0-3.733A4.787,4.787,0,0,0,9.653,9.945,5.036,5.036,0,0,0,8.1,8.916,4.856,4.856,0,0,0,6.173,8.535Z" transform="translate(130.63 243.394)" fill="#fefefe"/>
    <path id="Fill_53" data-name="Fill 53" d="M0,0H1.989l4.5,11.612L10.881,0h1.784L7.342,13.514H5.528Z" transform="translate(144.501 249.07)" fill="#fefefe"/>
    <path id="Fill_54" data-name="Fill 54" d="M0,1.5A1.455,1.455,0,0,1,.435.435,1.459,1.459,0,0,1,1.506,0a1.459,1.459,0,0,1,1.07.435A1.455,1.455,0,0,1,3.011,1.5a1.452,1.452,0,0,1-.435,1.07,1.455,1.455,0,0,1-1.07.435A1.456,1.456,0,0,1,.435,2.575,1.452,1.452,0,0,1,0,1.5" transform="translate(157.977 243.14)" fill="#fefefe"/>
    <path id="Fill_55" data-name="Fill 55" d="M0,13.514H2.009V0H0Z" transform="translate(158.449 249.069)" fill="#fefefe"/>
    <path id="Fill_56" data-name="Fill 56" d="M1.543,10.364a3.755,3.755,0,0,0,1.63,1.645,4.809,4.809,0,0,0,2.271.568A3.669,3.669,0,0,0,6.55,12.4a3.355,3.355,0,0,0,.99-.5,2.675,2.675,0,0,0,.713-.772A1.926,1.926,0,0,0,8.53,10.1a1.662,1.662,0,0,0-.6-1.4,4.435,4.435,0,0,0-1.47-.728,17.476,17.476,0,0,0-1.921-.451A8.186,8.186,0,0,1,2.62,6.943,4.129,4.129,0,0,1,1.15,5.851a2.957,2.957,0,0,1-.6-1.979A3.47,3.47,0,0,1,.96,2.154,3.76,3.76,0,0,1,2.023.946,4.6,4.6,0,0,1,3.494.233,6.016,6.016,0,0,1,5.153,0,6.292,6.292,0,0,1,8.021.611,4.247,4.247,0,0,1,9.9,2.533l-1.572.932A3.7,3.7,0,0,0,7.089,2.052a3.515,3.515,0,0,0-1.936-.48,3.543,3.543,0,0,0-.975.146,3.4,3.4,0,0,0-.917.408,2.344,2.344,0,0,0-.684.669,1.617,1.617,0,0,0-.277.931,1.55,1.55,0,0,0,.6,1.34,4.581,4.581,0,0,0,1.47.684,17.9,17.9,0,0,0,1.921.422A7.771,7.771,0,0,1,8.21,6.74,3.939,3.939,0,0,1,9.68,7.875a3.3,3.3,0,0,1,.6,2.111,3.96,3.96,0,0,1-.393,1.819,3.746,3.746,0,0,1-1.078,1.3,4.78,4.78,0,0,1-1.557.786,6.339,6.339,0,0,1-1.834.263,7.468,7.468,0,0,1-3.188-.67A4.841,4.841,0,0,1,0,11.412Z" transform="translate(161.749 248.754)" fill="#fefefe"/>
    <path id="Fill_57" data-name="Fill 57" d="M6.485,13.834a6.615,6.615,0,0,1-2.615-.513,5.951,5.951,0,0,1-2.056-1.437A6.7,6.7,0,0,1,.48,9.692,7.815,7.815,0,0,1,0,6.917,7.817,7.817,0,0,1,.48,4.142,6.7,6.7,0,0,1,1.814,1.95,5.951,5.951,0,0,1,3.87.513,6.615,6.615,0,0,1,6.485,0a6.524,6.524,0,0,1,2.6.513A6.124,6.124,0,0,1,11.143,1.95,6.6,6.6,0,0,1,12.49,4.142a7.817,7.817,0,0,1,.481,2.776,7.814,7.814,0,0,1-.481,2.775,6.6,6.6,0,0,1-1.347,2.191,6.124,6.124,0,0,1-2.056,1.437A6.524,6.524,0,0,1,6.485,13.834Zm0-12.3A4.66,4.66,0,0,0,2.909,3.117a5,5,0,0,0-.975,1.708A6.5,6.5,0,0,0,1.6,6.917a6.5,6.5,0,0,0,.333,2.092,5.021,5.021,0,0,0,.975,1.708A4.668,4.668,0,0,0,6.485,12.3a4.665,4.665,0,0,0,3.576-1.58,5.009,5.009,0,0,0,.975-1.708,6.5,6.5,0,0,0,.333-2.092,6.5,6.5,0,0,0-.333-2.093,4.992,4.992,0,0,0-.975-1.708A4.657,4.657,0,0,0,6.485,1.537Z" transform="translate(172.763 249.07)" fill="#fefefe"/>
    <path id="Fill_58" data-name="Fill 58" d="M.151,4.089c0-.249-.011-.552-.03-.907S.085,2.467.075,2.1.05,1.4.03,1.08,0,.519,0,.346H1.812q.03.75.045,1.439a4.345,4.345,0,0,0,.075.893A6.02,6.02,0,0,1,3.714.749,4.573,4.573,0,0,1,6.372,0,3.153,3.153,0,0,1,6.9.044c.171.028.347.063.528.1l-.211,1.7a2.311,2.311,0,0,0-.694-.115,5.263,5.263,0,0,0-2.039.36,3.821,3.821,0,0,0-1.419.993,4.116,4.116,0,0,0-.831,1.483,5.968,5.968,0,0,0-.271,1.828v7.256H.151Z" transform="translate(186.919 248.936)" fill="#fefefe"/>
  </g>
</svg>
