<?xml version="1.0" encoding="utf-8"?>
<!-- Generator: Adobe Illustrator 24.1.0, SVG Export Plug-In . SVG Version: 6.00 Build 0)  -->
<svg version="1.1" id="Layer_1" xmlns="http://www.w3.org/2000/svg" xmlns:xlink="http://www.w3.org/1999/xlink" x="0px" y="0px"
	 viewBox="0 0 31.9 30.4" style="enable-background:new 0 0 31.9 30.4;" xml:space="preserve">
<style type="text/css">
	.st0{fill:#FF5100;}
</style>
<path id="star1" class="st0" d="M31.3,13.2L31.3,13.2l-8,5.8l3.1,9.5c0.1,0.2,0.1,0.3,0.1,0.5c0,0.8-0.7,1.5-1.5,1.5
	c-0.3,0-0.6-0.1-0.9-0.3l0,0L16,24.3l-8.1,5.9l0,0c-0.7,0.5-1.6,0.3-2.1-0.3c-0.3-0.4-0.4-0.9-0.2-1.4L8.7,19l-8-5.8l0,0
	c-0.7-0.5-0.8-1.4-0.3-2.1c0.3-0.4,0.7-0.6,1.2-0.6h10l3.1-9.4c0.2-0.8,1.1-1.2,1.9-1c0.5,0.1,0.8,0.5,1,1l3.1,9.4h10
	c0.8,0,1.5,0.7,1.5,1.5C31.9,12.5,31.7,12.9,31.3,13.2"/>
</svg>
