<svg xmlns="http://www.w3.org/2000/svg" width="136.665" height="30.426" viewBox="0 0 136.665 30.426">
  <g id="star4" transform="translate(-655.869 -240.731)">
    <path id="Path" d="M31.3,13.183a1.5,1.5,0,0,0-.877-2.708H20.474L17.392,1.057a1.5,1.5,0,0,0-2.862,0l-3.082,9.418H1.5A1.5,1.5,0,0,0,.62,13.183h0L8.658,19l-3.1,9.462a1.5,1.5,0,0,0,2.3,1.68h0l8.1-5.86,8.1,5.86h0a1.495,1.495,0,0,0,2.3-1.68L23.264,19,31.3,13.184h0" transform="translate(760.612 240.731)" fill="#fff"/>
    <g id="star3">
      <path id="Path-2" data-name="Path" d="M31.3,13.183a1.5,1.5,0,0,0-.877-2.708H20.473L17.392,1.057a1.5,1.5,0,0,0-2.863,0l-3.082,9.418H1.5a1.5,1.5,0,0,0-.877,2.708h0L8.658,19l-3.1,9.462a1.495,1.495,0,0,0,2.3,1.68h0l8.1-5.86,8.1,5.86h0a1.495,1.495,0,0,0,2.373-1.212,1.514,1.514,0,0,0-.075-.468L23.263,19,31.3,13.184h0" transform="translate(725.698 240.731)" fill="#fff"/>
      <g id="star2">
        <path id="Path-3" data-name="Path" d="M31.3,13.183a1.5,1.5,0,0,0-.877-2.708H20.474L17.392,1.057a1.5,1.5,0,0,0-2.862,0l-3.082,9.418H1.5A1.5,1.5,0,0,0,.62,13.183h0L8.659,19l-3.1,9.462a1.495,1.495,0,0,0,2.3,1.68h0l8.1-5.86,8.1,5.86h0a1.495,1.495,0,0,0,2.3-1.68L23.264,19,31.3,13.184h0" transform="translate(690.783 240.731)" fill="#fff"/>
        <path id="star1" d="M31.3,13.183h0L23.264,19l3.095,9.462a1.458,1.458,0,0,1,.077.468,1.495,1.495,0,0,1-2.373,1.212h0l-8.1-5.86-8.1,5.86h0a1.495,1.495,0,0,1-2.3-1.68L8.658,19,.619,13.184h0A1.5,1.5,0,0,1,1.5,10.475h9.952L14.53,1.057a1.5,1.5,0,0,1,2.862,0l3.082,9.418h9.952a1.5,1.5,0,0,1,.876,2.708" transform="translate(655.869 240.731)" fill="#fff"/>
      </g>
    </g>
  </g>
</svg>
