<?xml version="1.0" encoding="utf-8"?>
<!-- Generator: Adobe Illustrator 24.1.0, SVG Export Plug-In . SVG Version: 6.00 Build 0)  -->
<svg version="1.1" id="Layer_1" xmlns="http://www.w3.org/2000/svg" xmlns:xlink="http://www.w3.org/1999/xlink" x="0px" y="0px"
	 viewBox="0 0 136.7 30.4" style="enable-background:new 0 0 136.7 30.4;" xml:space="preserve">
<style type="text/css">
	.st0{fill:#FF5100;}
</style>
<g id="star4" transform="translate(-655.869 -240.731)">
	<path id="Path" class="st0" d="M791.9,253.9c0.7-0.5,0.8-1.4,0.3-2.1c-0.3-0.4-0.7-0.6-1.2-0.6h-9.9l-3.1-9.4
		c-0.2-0.8-1.1-1.2-1.9-1c-0.5,0.1-0.8,0.5-1,1l-3.1,9.4h-9.9c-0.8,0-1.5,0.7-1.5,1.5c0,0.5,0.2,0.9,0.6,1.2l0,0l8,5.8l-3.1,9.5
		c-0.3,0.8,0.2,1.6,1,1.9c0.5,0.1,0.9,0.1,1.3-0.2l0,0l8.1-5.9l8.1,5.9l0,0c0.7,0.5,1.6,0.3,2.1-0.3c0.3-0.4,0.4-0.9,0.2-1.4
		l-3.1-9.5L791.9,253.9L791.9,253.9"/>
	<g id="star3">
		<path id="Path-2" class="st0" d="M757,253.9c0.7-0.5,0.8-1.4,0.3-2.1c-0.3-0.4-0.7-0.6-1.2-0.6h-9.9l-3.1-9.4
			c-0.2-0.8-1.1-1.2-1.9-1c-0.5,0.1-0.8,0.5-1,1l-3.1,9.4h-9.9c-0.8,0-1.5,0.7-1.5,1.5c0,0.5,0.2,0.9,0.6,1.2l0,0l8,5.8l-3.1,9.5
			c-0.3,0.8,0.2,1.6,0.9,1.9c0.5,0.2,1,0.1,1.4-0.2l0,0l8.1-5.9l8.1,5.9l0,0c0.7,0.5,1.6,0.3,2.1-0.3c0.2-0.3,0.3-0.6,0.3-0.9
			c0-0.2,0-0.3-0.1-0.5l-3.1-9.5L757,253.9L757,253.9"/>
		<g id="star2">
			<path id="Path-3" class="st0" d="M722.1,253.9c0.7-0.5,0.8-1.4,0.3-2.1c-0.3-0.4-0.7-0.6-1.2-0.6h-9.9l-3.1-9.4
				c-0.2-0.8-1.1-1.2-1.9-1c-0.5,0.1-0.8,0.5-1,1l-3.1,9.4h-9.9c-0.8,0-1.5,0.7-1.5,1.5c0,0.5,0.2,0.9,0.6,1.2l0,0l8,5.8l-3.1,9.5
				c-0.3,0.8,0.2,1.6,0.9,1.9c0.5,0.2,1,0.1,1.4-0.2l0,0l8.1-5.9l8.1,5.9l0,0c0.7,0.5,1.6,0.3,2.1-0.3c0.3-0.4,0.4-0.9,0.2-1.4
				l-3.1-9.5L722.1,253.9L722.1,253.9"/>
			<path id="star1" class="st0" d="M687.2,253.9L687.2,253.9l-8,5.8l3.1,9.5c0.1,0.2,0.1,0.3,0.1,0.5c0,0.8-0.7,1.5-1.5,1.5
				c-0.3,0-0.6-0.1-0.9-0.3l0,0l-8.1-5.9l-8.1,5.9l0,0c-0.7,0.5-1.6,0.3-2.1-0.3c-0.3-0.4-0.4-0.9-0.2-1.4l3.1-9.5l-8-5.8l0,0
				c-0.7-0.5-0.8-1.4-0.3-2.1c0.3-0.4,0.7-0.6,1.2-0.6h10l3.1-9.4c0.2-0.8,1.1-1.2,1.9-1c0.5,0.1,0.8,0.5,1,1l3.1,9.4h10
				c0.8,0,1.5,0.7,1.5,1.5C687.8,253.2,687.6,253.6,687.2,253.9"/>
		</g>
	</g>
</g>
</svg>
