<svg xmlns="http://www.w3.org/2000/svg" width="103.472" height="52.263" viewBox="0 0 103.472 52.263">
  <g id="yelp" transform="translate(-1.296 -80.255)">
    <path id="Fill_34" data-name="Fill 34" d="M102.745,35.49a5.6,5.6,0,0,0-3.323-7.733l-.182-.06a5.6,5.6,0,0,0,3.776-7.665,18.407,18.407,0,0,0-4.752-6.538,5.619,5.619,0,0,0-3.7-1.4H94.54a5.52,5.52,0,0,0-4.725,2.628V5.6A5.583,5.583,0,0,0,84.224,0h-.032a26.084,26.084,0,0,0-5.4.877,27.593,27.593,0,0,0-4.749,1.75,5.6,5.6,0,0,0-2.433,7.848l4.563,7.9a5.6,5.6,0,0,0-7.932,3.158q-.084.252-.162.5A10.034,10.034,0,0,0,65.4,20.2a11.08,11.08,0,0,0-4.725-1.06,10.643,10.643,0,0,0-3.6.618,6.028,6.028,0,0,0-6.587.645V19.3a6.021,6.021,0,0,0-12.041,0v3.324a11.06,11.06,0,0,0-8.023-3.352,11.353,11.353,0,0,0-7.059,2.55,6.031,6.031,0,0,0-3.138-2.259,6.077,6.077,0,0,0-7.6,4.01l-.257.827-.827-1.695a6.141,6.141,0,0,0-5.45-3.429,6.139,6.139,0,0,0-2.679.631,6.08,6.08,0,0,0-2.8,8.13L6.382,39.847a5.792,5.792,0,0,0-3.506,3.9,5.853,5.853,0,0,0,.887,5.113,6.783,6.783,0,0,0,5.632,2.6c.114,0,.226,0,.337,0,4.387,0,7.6-2.169,8.806-5.951.5-1.556,1.075-3.387,1.666-5.279.108.241.222.478.343.707a10.478,10.478,0,0,0,9.77,5.585c4.147,0,7.057-1.4,8.857-3.222A6.013,6.013,0,0,0,48.25,45.14v1.1a6.021,6.021,0,0,0,12.04.158s.1,0,.267,0a10.723,10.723,0,0,0,7.564-3.041,10.167,10.167,0,0,0,1.468-1.909,5.168,5.168,0,0,0,4.54.213,5.623,5.623,0,0,0,1.233,1.16,18.8,18.8,0,0,0,7.477,3.024,5.6,5.6,0,0,0,6.523-5.325l.007-.193.1.164a5.6,5.6,0,0,0,8.312,1.35,18.8,18.8,0,0,0,4.962-6.358" transform="translate(1.296 80.255)" fill="#fefefe"/>
    <path id="Fill_35" data-name="Fill 35" d="M4.251,23.277a2.126,2.126,0,0,1-4.251,0V2.125a2.126,2.126,0,0,1,4.251,0Z" transform="translate(43.643 97.434)"/>
    <path id="Fill_36" data-name="Fill 36" d="M7.56,19.464c-2.969,0-5.1-1.18-6.323-3.507A13,13,0,0,1,0,10.017c0-3.75.994-6.524,2.955-8.245a7.29,7.29,0,0,1,9.236-.24c1.9,1.506,2.941,3.979,3.106,7.353,0,.015,0,.03,0,.044s0,.042,0,.064V9a2.271,2.271,0,0,1-2.067,2.366,1.537,1.537,0,0,1-.158.009l-7.636-.009c-.657.025-.913.226-.913.716a4.086,4.086,0,0,0,.587,1.94,3.186,3.186,0,0,0,2.905,1.489,5.4,5.4,0,0,0,3.35-1.529,4.454,4.454,0,0,1,1.131-.751,1.605,1.605,0,0,1,.515-.087,1.945,1.945,0,0,1,1.758,2.047C14.775,16.04,13.491,19.464,7.56,19.464ZM7.884,4.149A3.268,3.268,0,0,0,4.518,7.568a.335.335,0,0,0,.07.249.156.156,0,0,0,.115.051h6.359c.089,0,.178-.086.178-.251A3.266,3.266,0,0,0,7.884,4.149Z" transform="translate(24.052 103.426)"/>
    <path id="Fill_37" data-name="Fill 37" d="M6.863,16.749.222,3.142A2.184,2.184,0,0,1,4.147,1.227L9.288,11.762,12.452,1.538A2.184,2.184,0,0,1,16.624,2.83S13.068,14.46,10.93,21.143c-.707,2.21-2.56,3.306-5.337,3.239C2.846,24.315,2.42,22.7,2.725,21.627A2.129,2.129,0,0,1,5,20.1c2.481.012,2.8-1.491,1.863-3.354" transform="translate(5.193 103.444)"/>
    <path id="Fill_38" data-name="Fill 38" d="M1.191,2.364A1.171,1.171,0,0,1,0,1.188,1.177,1.177,0,0,1,1.191,0,1.172,1.172,0,0,1,2.384,1.176,1.178,1.178,0,0,1,1.191,2.364Zm0-2.193a1,1,0,0,0-1,1.017.992.992,0,0,0,1,1,1,1,0,0,0,1-1.016A.993.993,0,0,0,1.191.171ZM.94,1.877H.749V.5h.5c.329,0,.482.125.482.394a.355.355,0,0,1-.363.371l.394.6-.206,0-.374-.589H.94v.589Zm0-1.2v.438h.236c.2,0,.369-.017.369-.226,0-.187-.157-.212-.31-.212Z" transform="translate(72.179 116.207)" fill="#221e1f"/>
    <path id="Fill_39" data-name="Fill 39" d="M2.126,25.4A2.128,2.128,0,0,1,0,23.276V2.125a2.124,2.124,0,0,1,4.189-.5A11.186,11.186,0,0,1,5.271.917,6.517,6.517,0,0,1,8.534.073a7.153,7.153,0,0,1,3.052.683c3.426,1.626,3.866,5.282,3.866,8.285,0,.063,0,.133.006.21V9.26c.045,1.617.166,5.912-2.275,8.422a6.61,6.61,0,0,1-4.948,1.857c-.093,0-.188,0-.283,0a5.415,5.415,0,0,1-3.7-1.811v5.551A2.128,2.128,0,0,1,2.126,25.4ZM8.187,4.424c-3.055,0-3.055,3.054-3.055,4.7v1.55a8.261,8.261,0,0,0,.382,2.971A2.62,2.62,0,0,0,8.187,15.35c3.055,0,3.055-3.054,3.055-4.7V9.1a8.26,8.26,0,0,0-.382-2.971A2.62,2.62,0,0,0,8.187,4.424Z" transform="translate(53.44 103.221)"/>
    <path id="Fill_40" data-name="Fill 40" d="M3.124.173l7.422,3.62a1.7,1.7,0,0,1-.334,3.18l-8.012,2A1.706,1.706,0,0,1,.1,7.507,14.659,14.659,0,0,1,.765,1.156,1.7,1.7,0,0,1,3.124.173" transform="translate(72.467 101.878)" fill="#d8272d"/>
    <path id="Fill_41" data-name="Fill 41" d="M.437,6.7,5.961.567a1.7,1.7,0,0,1,2.965,1.2l-.288,8.254a1.7,1.7,0,0,1-1.985,1.62A14.8,14.8,0,0,1,.737,9.245,1.7,1.7,0,0,1,.437,6.7" transform="translate(78.126 110.627)" fill="#d8272d"/>
    <path id="Fill_42" data-name="Fill 42" d="M2.234.088l7.852,2.553A1.7,1.7,0,0,1,11.1,4.991a14.776,14.776,0,0,1-3.926,5.032,1.7,1.7,0,0,1-2.529-.411l-4.377-7A1.7,1.7,0,0,1,2.234.088" transform="translate(89.427 109.077)" fill="#d8272d"/>
    <path id="Fill_43" data-name="Fill 43" d="M10.115,7.908,2.178,10.183A1.7,1.7,0,0,1,.3,7.6L4.916.751A1.7,1.7,0,0,1,7.45.423,14.639,14.639,0,0,1,11.2,5.589a1.7,1.7,0,0,1-1.09,2.319" transform="translate(89.532 96.247)" fill="#d8272d"/>
    <path id="Fill_44" data-name="Fill 44" d="M5.046.743a23.783,23.783,0,0,0-4.08,1.5A1.7,1.7,0,0,0,.229,4.632L7.987,18.069a1.7,1.7,0,0,0,3.175-.85V1.7A1.7,1.7,0,0,0,9.331.005,23.72,23.72,0,0,0,5.046.743" transform="translate(76.054 84.151)" fill="#d8272d"/>
  </g>
</svg>
